<svg width="26" height="30" viewBox="0 0 26 30" fill="none" xmlns="http://www.w3.org/2000/svg">
<path d="M6.125 4.06665C4.8435 4.06665 4.20275 4.06665 3.69813 4.27605C3.36425 4.41452 3.06088 4.61756 2.80537 4.87357C2.54986 5.12957 2.34721 5.43352 2.209 5.76804C2 6.27363 2 6.91561 2 8.19957V22.6648C2 25.263 2 26.5608 2.80575 27.3681C3.6115 28.1754 4.90675 28.1754 7.5 28.1754H18.5C21.0933 28.1754 22.3885 28.1754 23.1942 27.3681C24 26.5608 24 25.263 24 22.6648V8.19957C24 6.91561 24 6.27363 23.791 5.76804C23.6528 5.43352 23.4501 5.12957 23.1946 4.87357C22.9391 4.61756 22.6358 4.41452 22.3019 4.27605C21.7972 4.06665 21.1565 4.06665 19.875 4.06665" stroke="#1746A2" stroke-width="3"/>
<path d="M6.125 4.41087C6.125 3.08007 7.203 2 8.53125 2H17.4688C18.1069 2 18.719 2.254 19.1702 2.70613C19.6215 3.15825 19.875 3.77147 19.875 4.41087C19.875 5.05027 19.6215 5.66349 19.1702 6.11561C18.719 6.56774 18.1069 6.82174 17.4688 6.82174H8.53125C7.89307 6.82174 7.28103 6.56774 6.82977 6.11561C6.37852 5.66349 6.125 5.05027 6.125 4.41087Z" stroke="#1746A2" stroke-width="3"/>
<path d="M7.5 11.6434H18.5M7.5 17.154H18.5M7.5 22.6646H13" stroke="#1746A2" stroke-width="3" stroke-linecap="round" stroke-linejoin="round"/>
</svg>
