<svg width="30" height="29" viewBox="0 0 30 29" fill="none" xmlns="http://www.w3.org/2000/svg">
<path d="M21.2808 1.36363V0C21.2535 0 21.2235 1.27315e-07 21.1949 0.00272738L21.2808 1.36363ZM8.71903 1.36363L8.80494 0.00272738C8.77634 0.000913996 8.74769 4.33006e-06 8.71903 0V1.36363ZM14.9999 27.2725L14.1954 28.3744C14.4272 28.5435 14.7064 28.6352 14.9933 28.6364C15.2803 28.6377 15.5603 28.5483 15.7935 28.3812L14.9999 27.2725ZM27.2725 9.54539C27.2725 9.90705 27.4162 10.2539 27.6719 10.5096C27.9277 10.7653 28.2745 10.909 28.6362 10.909C28.9978 10.909 29.3447 10.7653 29.6004 10.5096C29.8561 10.2539 29.9998 9.90705 29.9998 9.54539H27.2725ZM23.7912 21.3639C24.04 21.1014 24.1744 20.7507 24.1646 20.3891C24.1549 20.0275 24.002 19.6846 23.7394 19.4358C23.4768 19.187 23.1262 19.0526 22.7646 19.0624C22.403 19.0721 22.06 19.225 21.8112 19.4876L23.7912 21.3639ZM21.1949 0.00272738C19.6772 0.10224 18.2106 0.590624 16.9363 1.4209L18.4199 3.71043C19.3016 3.13408 20.317 2.79454 21.368 2.72453L21.1949 0.00272738ZM16.9363 1.4209C15.6563 2.26443 14.5954 3.4002 13.8408 4.73451L16.2067 6.09132C16.7456 5.13369 17.5041 4.31769 18.4199 3.71043L16.9363 1.4209ZM16.159 4.73451C15.4044 3.4002 14.3435 2.26443 13.0635 1.4209L11.5799 3.71043C12.4957 4.31769 13.2542 5.13369 13.7931 6.09132L16.159 4.73451ZM13.0635 1.4209C11.7893 0.590513 10.3227 0.102119 8.80494 0.00272738L8.63176 2.72453C9.66675 2.78998 10.6772 3.12543 11.5799 3.71043L13.0635 1.4209ZM8.71903 0C6.32314 0 4.04861 1.02817 2.38908 2.82134L4.38952 4.67451C5.55678 3.41316 7.11813 2.72725 8.71903 2.72725V0ZM2.38908 2.82134C0.677723 4.66906 0 7.15086 0 9.54539H2.72725C2.72725 7.62268 3.27134 5.87996 4.38952 4.67451L2.38908 2.82134ZM0 9.54539C0 11.8636 1.00499 14.2035 2.34135 16.3226C3.69134 18.4621 5.46815 20.513 7.2095 22.2817C9.3844 24.4744 11.715 26.5069 14.1831 28.3634L14.1913 28.3703L14.194 28.373L14.9999 27.2725L15.8044 26.1707H15.8031L15.7976 26.1666L15.7703 26.1476C15.0804 25.6281 14.4021 25.0934 13.7358 24.5439C12.1391 23.2298 10.6099 21.8358 9.15403 20.3671C7.48631 18.6735 5.85405 16.7794 4.64724 14.8663C3.4268 12.9326 2.72725 11.1136 2.72725 9.54539H0ZM29.9998 9.54539C29.9998 7.15086 29.3221 4.66906 27.6107 2.82134L25.6103 4.67451C26.7257 5.87996 27.2725 7.62268 27.2725 9.54539H29.9998ZM27.6107 2.82134C25.9512 1.02817 23.6767 0 21.2808 0V2.72725C22.883 2.72725 24.443 3.41316 25.6103 4.67451L27.6107 2.82134ZM14.9999 27.2725L15.7935 28.3812H15.7949L15.799 28.3784L15.8085 28.3703L15.8481 28.343C16.0748 28.1789 16.299 28.0111 16.5203 27.8398C16.9731 27.4962 17.6112 26.9985 18.3694 26.3753C20.2764 24.816 22.087 23.1425 23.7912 21.3639L21.8112 19.4876C20.1848 21.1843 18.4571 22.7808 16.6376 24.2685C15.8561 24.9107 15.0586 25.5331 14.2458 26.1353L14.2145 26.1585L14.2076 26.1626L14.2063 26.1639L14.9999 27.2725ZM13.8408 4.73451C13.8135 4.7836 13.8654 4.68406 13.939 4.58997C14.0656 4.42987 14.2268 4.30056 14.4106 4.21175C14.5943 4.12294 14.7958 4.07696 14.9999 4.07725V6.80314C15.2379 6.80289 15.4718 6.74232 15.6788 6.62473C15.8858 6.50715 16.0587 6.33794 16.1808 6.1336L16.1985 6.10496C16.2012 6.10038 16.2039 6.09584 16.2067 6.09132L13.8408 4.73451ZM13.7931 6.09132L13.8013 6.10496L13.819 6.1336C13.9411 6.33794 14.114 6.50715 14.321 6.62473C14.528 6.74232 14.7619 6.80289 14.9999 6.80314V4.07725C15.2041 4.07712 15.4057 4.12332 15.5894 4.21237C15.7732 4.30141 15.9344 4.43099 16.0608 4.59133C16.1344 4.68542 16.1863 4.7836 16.159 4.73451L13.7931 6.09132Z" fill="#1746A2"/>
<path d="M8.32611 15.7532C8.23943 15.9139 8.18592 16.0904 8.16876 16.2722C8.15159 16.4541 8.17112 16.6375 8.22619 16.8116C8.28125 16.9857 8.37073 17.147 8.48932 17.2859C8.6079 17.4248 8.75317 17.5384 8.91651 17.6201C9.07986 17.7017 9.25794 17.7498 9.44019 17.7613C9.62245 17.7729 9.80517 17.7477 9.9775 17.6872C10.1498 17.6268 10.3083 17.5324 10.4434 17.4096C10.5786 17.2868 10.6877 17.138 10.7643 16.9723L8.32611 15.7532ZM12.2724 10.9082L13.3633 10.09C13.2238 9.90423 13.0392 9.75715 12.8269 9.66276C12.6145 9.56837 12.3816 9.52979 12.1502 9.55069C11.9188 9.5716 11.6966 9.65128 11.5046 9.78218C11.3127 9.91309 11.1573 10.0909 11.0534 10.2987L12.2724 10.9082ZM16.3633 16.3627L15.2724 17.1809C15.3897 17.3372 15.5391 17.4664 15.7106 17.5599C15.8822 17.6534 16.0718 17.7089 16.2666 17.7228C16.4615 17.7366 16.657 17.7084 16.8401 17.6401C17.0231 17.5718 17.1893 17.4649 17.3274 17.3268L16.3633 16.3627ZM19.0906 13.6355L20.0547 12.6714C19.7989 12.4157 19.4522 12.2721 19.0906 12.2721C18.729 12.2721 18.3822 12.4157 18.1265 12.6714L19.0906 13.6355ZM21.8178 16.3627L20.8538 17.3268C21.0858 17.5589 21.3938 17.6995 21.7212 17.7228C22.0486 17.7461 22.3734 17.6505 22.636 17.4536L21.8178 16.3627ZM28.636 15.6809C28.9976 15.6809 29.3445 15.5372 29.6002 15.2815C29.8559 15.0258 29.9996 14.6789 29.9996 14.3173C29.9996 13.9556 29.8559 13.6088 29.6002 13.353C29.3445 13.0973 28.9976 12.9537 28.636 12.9537V15.6809ZM10.7643 16.9723L13.4915 11.5178L11.0534 10.2987L8.32611 15.7532L10.7643 16.9723ZM11.1815 11.7264L15.2724 17.1809L17.4542 15.5445L13.3633 10.09L11.1815 11.7264ZM17.3274 17.3268L20.0547 14.5995L18.1265 12.6714L15.3992 15.3986L17.3274 17.3268ZM18.1265 14.5995L20.8538 17.3268L22.7819 15.3986L20.0547 12.6714L18.1265 14.5995ZM22.636 17.4536L24.6365 15.9536L23.0001 13.7718L20.9997 15.2718L22.636 17.4536ZM25.4546 15.6809H28.636V12.9537H25.4546V15.6809ZM24.6365 15.9536C24.8287 15.8091 24.9255 15.7368 24.9978 15.6905C25.0537 15.6523 25.0428 15.6659 24.9992 15.6809L24.1374 13.0941C23.6696 13.2496 23.2892 13.555 23.0001 13.7718L24.6365 15.9536ZM25.4546 12.9537C25.0919 12.9537 24.6051 12.9373 24.1374 13.0941L24.9992 15.6809C24.9555 15.6945 24.9392 15.6918 25.0074 15.6864C25.0933 15.6823 25.2119 15.6809 25.4546 15.6809V12.9537Z" fill="#1746A2"/>
</svg>
