<svg width="26" height="26" viewBox="0 0 26 26" fill="none" xmlns="http://www.w3.org/2000/svg">
<circle cx="13" cy="13" r="13" fill="#1746A2"/>
<path d="M19.6667 6.33337V11.3334H18V9.18754L14.6875 12.4792C14.9514 12.8681 15.1528 13.2812 15.2917 13.7184C15.4306 14.1562 15.5 14.6112 15.5 15.0834C15.5 16.3612 15.0555 17.4445 14.1667 18.3334C13.2778 19.2223 12.1944 19.6667 10.9167 19.6667C9.63888 19.6667 8.55555 19.2223 7.66666 18.3334C6.77777 17.4445 6.33333 16.3612 6.33333 15.0834C6.33333 13.8056 6.77777 12.7223 7.66666 11.8334C8.55555 10.9445 9.63888 10.5 10.9167 10.5C11.375 10.5 11.8264 10.5662 12.2708 10.6984C12.7153 10.83 13.125 11.0348 13.5 11.3125L16.8125 8.00004H14.6667V6.33337H19.6667ZM10.9167 12.1667C10.1111 12.1667 9.42361 12.4514 8.85416 13.0209C8.28472 13.5903 7.99999 14.2778 7.99999 15.0834C7.99999 15.8889 8.28472 16.5764 8.85416 17.1459C9.42361 17.7153 10.1111 18 10.9167 18C11.7222 18 12.4097 17.7153 12.9792 17.1459C13.5486 16.5764 13.8333 15.8889 13.8333 15.0834C13.8333 14.2778 13.5486 13.5903 12.9792 13.0209C12.4097 12.4514 11.7222 12.1667 10.9167 12.1667Z" fill="white"/>
</svg>
