<svg width="33" height="33" viewBox="0 0 33 33" fill="none" xmlns="http://www.w3.org/2000/svg">
<circle cx="16.5" cy="16.5" r="16.5" fill="#1746A2"/>
<path d="M25.0567 8.4444L25.5503 8.93275C26.2306 9.6065 26.1277 10.8009 25.3186 11.6004L15.1381 21.6711L11.8397 22.8647C11.4256 23.0153 11.0223 22.82 10.9403 22.4301C10.9125 22.2887 10.9256 22.1424 10.9779 22.008L12.2079 18.717L22.3599 8.67368C23.169 7.87411 24.3764 7.77148 25.0567 8.44523V8.4444ZM14.6938 9.44592C14.8037 9.44592 14.9125 9.46733 15.014 9.50893C15.1155 9.55053 15.2078 9.61149 15.2855 9.68835C15.3632 9.76521 15.4248 9.85646 15.4668 9.95688C15.5089 10.0573 15.5305 10.1649 15.5305 10.2736C15.5305 10.3823 15.5089 10.49 15.4668 10.5904C15.4248 10.6908 15.3632 10.782 15.2855 10.8589C15.2078 10.9358 15.1155 10.9967 15.014 11.0383C14.9125 11.0799 14.8037 11.1013 14.6938 11.1013H11.3469C10.9031 11.1013 10.4774 11.2757 10.1636 11.5862C9.84976 11.8966 9.67345 12.3177 9.67345 12.7567V22.6892C9.67345 23.1282 9.84976 23.5493 10.1636 23.8597C10.4774 24.1702 10.9031 24.3446 11.3469 24.3446H21.3876C21.8314 24.3446 22.2571 24.1702 22.5709 23.8597C22.8848 23.5493 23.0611 23.1282 23.0611 22.6892V19.3784C23.0611 19.1588 23.1492 18.9483 23.3061 18.7931C23.4631 18.6379 23.6759 18.5507 23.8978 18.5507C24.1197 18.5507 24.3325 18.6379 24.4895 18.7931C24.6464 18.9483 24.7345 19.1588 24.7345 19.3784V22.6892C24.7345 23.5673 24.3819 24.4094 23.7542 25.0303C23.1266 25.6512 22.2753 26 21.3876 26H11.3469C10.4593 26 9.60795 25.6512 8.98029 25.0303C8.35262 24.4094 8 23.5673 8 22.6892V12.7567C8 11.8787 8.35262 11.0365 8.98029 10.4156C9.60795 9.79474 10.4593 9.44592 11.3469 9.44592H14.6938Z" fill="white"/>
</svg>
