<svg width="126" height="33" viewBox="0 0 126 33" fill="none" xmlns="http://www.w3.org/2000/svg">
<path d="M5.68008 10.947V11.0834L5.79525 11.0103C7.62866 9.84769 9.79879 9.1725 12.1301 9.1725C18.6752 9.1725 23.9801 14.4774 23.9801 21.0225C23.9801 27.5676 18.6752 32.8725 12.1301 32.8725C5.585 32.8725 0.280078 27.5676 0.280078 21.0225V21.0225V21.0224V21.0224V21.0223V21.0223V21.0222V21.0222V21.0221V21.0221V21.0221V21.022V21.022V21.0219V21.0219V21.0218V21.0218V21.0218V21.0217V21.0217V21.0216V21.0216V21.0215V21.0215V21.0214V21.0214V21.0214V21.0213V21.0213V21.0212V21.0212V21.0211V21.0211V21.021V21.021V21.021V21.0209V21.0209V21.0208V21.0208V21.0207V21.0207V21.0207V21.0206V21.0206V21.0205V21.0205V21.0204V21.0204V21.0203V21.0203V21.0203V21.0202V21.0202V21.0201V21.0201V21.02V21.02V21.0199V21.0199V21.0199V21.0198V21.0198V21.0197V21.0197V21.0196V21.0196V21.0196V21.0195V21.0195V21.0194V21.0194V21.0193V21.0193V21.0192V21.0192V21.0192V21.0191V21.0191V21.019V21.019V21.0189V21.0189V21.0189V21.0188V21.0188V21.0187V21.0187V21.0186V21.0186V21.0185V21.0185V21.0185V21.0184V21.0184V21.0183V21.0183V21.0182V21.0182V21.0181V21.0181V21.0181V21.018V21.018V21.0179V21.0179V21.0178V21.0178V21.0178V21.0177V21.0177V21.0176V21.0176V21.0175V21.0175V21.0174V21.0174V21.0174V21.0173V21.0173V21.0172V21.0172V21.0171V21.0171V21.017V21.017V21.017V21.0169V21.0169V21.0168V21.0168V21.0167V21.0167V21.0167V21.0166V21.0166V21.0165V21.0165V21.0164V21.0164V21.0163V21.0163V21.0163V21.0162V21.0162V21.0161V21.0161V21.016V21.016V21.0159V21.0159V21.0159V21.0158V21.0158V21.0157V21.0157V21.0156V21.0156V21.0156V21.0155V21.0155V21.0154V21.0154V21.0153V21.0153V21.0152V21.0152V21.0152V21.0151V21.0151V21.015V21.015V21.0149V21.0149V21.0149V21.0148V21.0148V21.0147V21.0147V21.0146V21.0146V21.0145V21.0145V21.0145V21.0144V21.0144V21.0143V21.0143V21.0142V21.0142V21.0141V21.0141V21.0141V21.014V21.014V21.0139V21.0139V21.0138V21.0138V21.0138V21.0137V21.0137V21.0136V21.0136V21.0135V21.0135V21.0134V21.0134V21.0134V21.0133V21.0133V21.0132V21.0132V21.0131V21.0131V21.0131V21.013V21.013V21.0129V21.0129V21.0128V21.0128V21.0127V21.0127V21.0127V21.0126V21.0126V21.0125V21.0125V21.0124V21.0124V21.0123V21.0123V21.0123V21.0122V21.0122V21.0121V21.0121V21.012V21.012V21.012V21.0119V21.0119V21.0118V21.0118V21.0117V21.0117V21.0116V21.0116V21.0116V21.0115V21.0115V21.0114V21.0114V21.0113V21.0113V21.0112V21.0112V21.0112V21.0111V21.0111V21.011V21.011V21.0109V21.0109V21.0109V21.0108V21.0108V21.0107V21.0107V21.0106V21.0106V21.0105V21.0105V21.0105V21.0104V21.0104V21.0103V21.0103V21.0102V21.0102V21.0101V21.0101V21.0101V21.01V21.01V21.0099V21.0099V21.0098V21.0098V21.0098V21.0097V21.0097V21.0096V21.0096V21.0095V21.0095V21.0094V21.0094V21.0094V21.0093V21.0093V21.0092V21.0092V21.0091V21.0091V21.0091V21.009V21.009V21.0089V21.0089V21.0088V21.0088V21.0087V21.0087V21.0087V21.0086V21.0086V21.0085V21.0085V21.0084V21.0084V21.0083V21.0083V21.0083V21.0082V21.0082V21.0081V21.0081V21.008V21.008V21.008V21.0079V21.0079V21.0078V21.0078V21.0077V21.0077V21.0076V21.0076V21.0076V21.0075V21.0075V21.0074V21.0074V21.0073V21.0073V21.0072V21.0072V21.0072V21.0071V21.0071V21.007V21.007V21.0069V21.0069V21.0069V21.0068V21.0068V21.0067V21.0067V21.0066V21.0066V21.0065V21.0065V21.0065V21.0064V21.0064V21.0063V21.0063V21.0062V21.0062V21.0062V21.0061V21.0061V21.006V21.006V21.0059V21.0059V21.0058V21.0058V21.0058V21.0057V21.0057V21.0056V21.0056V21.0055V21.0055V21.0054V21.0054V21.0054V21.0053V21.0053V21.0052V21.0052V21.0051V21.0051V21.0051V21.005V21.005V21.0049V21.0049V21.0048V21.0048V21.0047V21.0047V21.0047V21.0046V21.0046V21.0045V21.0045V21.0044V21.0044V21.0043V21.0043V21.0043V21.0042V21.0042V21.0041V21.0041V21.004V21.004V21.004V21.0039V21.0039V21.0038V21.0038V21.0037V21.0037V21.0036V21.0036V21.0036V21.0035V21.0035V21.0034V21.0034V21.0033V21.0033V21.0033V21.0032V21.0032V21.0031V21.0031V21.003V21.003V21.0029V21.0029V21.0029V21.0028V21.0028V21.0027V21.0027V21.0026V21.0026V21.0025V21.0025V21.0025V21.0024V21.0024V21.0023V21.0023V21.0022V21.0022V21.0022V21.0021V21.0021V21.002V21.002V21.0019V21.0019V21.0018V21.0018V21.0018V21.0017V21.0017V21.0016V21.0016V21.0015V21.0015V21.0014V21.0014V21.0014V21.0013V21.0013V21.0012V21.0012V21.0011V21.0011V21.0011V21.001V21.001V21.0009V21.0009V21.0008V21.0008V21.0007V21.0007V21.0007V21.0006V21.0006V21.0005V21.0005V21.0004V21.0004V21.0004V21.0003V21.0003V21.0002V21.0002V21.0001V21.0001V21V21V2.775C0.280078 1.28342 1.4885 0.075 2.98008 0.075C4.47166 0.075 5.68008 1.28342 5.68008 2.775V10.947ZM5.68157 21.0225C5.68157 24.5829 8.56815 27.471 12.1301 27.471C15.6905 27.471 18.5786 24.5829 18.5786 21.0225C18.5786 17.4621 15.6905 14.574 12.1301 14.574C8.56966 14.574 5.68157 17.4621 5.68157 21.0225Z" fill="#0A2864" stroke="#0A2864" stroke-width="0.15"/>
<path d="M25.9285 21.0225C25.9285 14.4775 31.2334 9.17253 37.7785 9.17253C44.3235 9.17253 49.6285 14.4775 49.6285 21.0225C49.6285 27.5676 44.3235 32.8725 37.7785 32.8725C31.2334 32.8725 25.9285 27.5676 25.9285 21.0225ZM31.33 21.0225C31.33 24.5829 34.2165 27.471 37.7785 27.471C41.3389 27.471 44.227 24.583 44.227 21.0225C44.227 17.4621 41.3389 14.574 37.7785 14.574C34.218 14.574 31.33 17.4621 31.33 21.0225Z" fill="#0A2864" stroke="#0A2864" stroke-width="0.15"/>
<path d="M56.9801 10.944V11.0802L57.0952 11.0074C58.9271 9.84769 61.0973 9.1725 63.4271 9.1725C69.9722 9.1725 75.2771 14.4774 75.2771 21.0225C75.2771 27.5676 69.9722 32.8725 63.4271 32.8725C56.882 32.8725 51.5771 27.5676 51.5771 21.0225C51.5771 21.0031 51.5778 20.9834 51.5785 20.9622L51.5786 20.9616C51.5793 20.941 51.5801 20.9188 51.5801 20.8965V2.775C51.5801 1.28342 52.7885 0.075 54.2801 0.075C55.7717 0.075 56.9801 1.28342 56.9801 2.775V10.944ZM63.4271 27.471H63.5021V27.4691C67.028 27.4289 69.8756 24.5564 69.8756 21.021C69.8756 17.4604 66.9573 14.5725 63.4271 14.5725C59.8981 14.5725 57.032 17.4087 56.9801 20.925H56.9786V21V21V21.0001V21.0001V21.0002V21.0002V21.0003V21.0003V21.0004V21.0004V21.0004V21.0005V21.0005V21.0006V21.0006V21.0007V21.0007V21.0007V21.0008V21.0008V21.0009V21.0009V21.001V21.001V21.0011V21.0011V21.0011V21.0012V21.0012V21.0013V21.0013V21.0014V21.0014V21.0014V21.0015V21.0015V21.0016V21.0016V21.0017V21.0017V21.0018V21.0018V21.0018V21.0019V21.0019V21.002V21.002V21.0021V21.0021V21.0022V21.0022V21.0022V21.0023V21.0023V21.0024V21.0024V21.0025V21.0025V21.0025V21.0026V21.0026V21.0027V21.0027V21.0028V21.0028V21.0029V21.0029V21.0029V21.003V21.003V21.0031V21.0031V21.0032V21.0032V21.0033V21.0033V21.0033V21.0034V21.0034V21.0035V21.0035V21.0036V21.0036V21.0036V21.0037V21.0037V21.0038V21.0038V21.0039V21.0039V21.004V21.004V21.004V21.0041V21.0041V21.0042V21.0042V21.0043V21.0043V21.0043V21.0044V21.0044V21.0045V21.0045V21.0046V21.0046V21.0047V21.0047V21.0047V21.0048V21.0048V21.0049V21.0049V21.005V21.005V21.0051V21.0051V21.0051V21.0052V21.0052V21.0053V21.0053V21.0054V21.0054V21.0054V21.0055V21.0055V21.0056V21.0056V21.0057V21.0057V21.0058V21.0058V21.0058V21.0059V21.0059V21.006V21.006V21.0061V21.0061V21.0062V21.0062V21.0062V21.0063V21.0063V21.0064V21.0064V21.0065V21.0065V21.0065V21.0066V21.0066V21.0067V21.0067V21.0068V21.0068V21.0069V21.0069V21.0069V21.007V21.007V21.0071V21.0071V21.0072V21.0072V21.0072V21.0073V21.0073V21.0074V21.0074V21.0075V21.0075V21.0076V21.0076V21.0076V21.0077V21.0077V21.0078V21.0078V21.0079V21.0079V21.008V21.008V21.008V21.0081V21.0081V21.0082V21.0082V21.0083V21.0083V21.0083V21.0084V21.0084V21.0085V21.0085V21.0086V21.0086V21.0087V21.0087V21.0087V21.0088V21.0088V21.0089V21.0089V21.009V21.009V21.0091V21.0091V21.0091V21.0092V21.0092V21.0093V21.0093V21.0094V21.0094V21.0094V21.0095V21.0095V21.0096V21.0096V21.0097V21.0097V21.0098V21.0098V21.0098V21.0099V21.0099V21.01V21.01V21.0101V21.0101V21.0101V21.0102V21.0102V21.0103V21.0103V21.0104V21.0104V21.0105V21.0105V21.0105V21.0106V21.0106V21.0107V21.0107V21.0108V21.0108V21.0109V21.0109V21.0109V21.011V21.011V21.0111V21.0111V21.0112V21.0112V21.0112V21.0113V21.0113V21.0114V21.0114V21.0115V21.0115V21.0116V21.0116V21.0116V21.0117V21.0117V21.0118V21.0118V21.0119V21.0119V21.012V21.012V21.012V21.0121V21.0121V21.0122V21.0122V21.0123V21.0123V21.0123V21.0124V21.0124V21.0125V21.0125V21.0126V21.0126V21.0127V21.0127V21.0127V21.0128V21.0128V21.0129V21.0129V21.013V21.013V21.0131V21.0131V21.0131V21.0132V21.0132V21.0133V21.0133V21.0134V21.0134V21.0134V21.0135V21.0135V21.0136V21.0136V21.0137V21.0137V21.0138V21.0138V21.0138V21.0139V21.0139V21.014V21.014V21.0141V21.0141V21.0141V21.0142V21.0142V21.0143V21.0143V21.0144V21.0144V21.0145V21.0145V21.0145V21.0146V21.0146V21.0147V21.0147V21.0148V21.0148V21.0149V21.0149V21.0149V21.015V21.015V21.0151V21.0151V21.0152V21.0152V21.0152V21.0153V21.0153V21.0154V21.0154V21.0155V21.0155V21.0156V21.0156V21.0156V21.0157V21.0157V21.0158V21.0158V21.0159V21.0159V21.0159V21.016V21.016V21.0161V21.0161V21.0162V21.0162V21.0163V21.0163V21.0163V21.0164V21.0164V21.0165V21.0165V21.0166V21.0166V21.0167V21.0167V21.0167V21.0168V21.0168V21.0169V21.0169V21.017V21.017V21.017V21.0171V21.0171V21.0172V21.0172V21.0173V21.0173V21.0174V21.0174V21.0174V21.0175V21.0175V21.0176V21.0176V21.0177V21.0177V21.0178V21.0178V21.0178V21.0179V21.0179V21.018V21.018V21.0181V21.0181V21.0181V21.0182V21.0182V21.0183V21.0183V21.0184V21.0184V21.0185V21.0185V21.0185V21.0186V21.0186V21.0187V21.0187V21.0188V21.0188V21.0189V21.0189V21.0189V21.019V21.019V21.0191V21.0191V21.0192V21.0192V21.0192V21.0193V21.0193V21.0194V21.0194V21.0195V21.0195V21.0196V21.0196V21.0196V21.0197V21.0197V21.0198V21.0198V21.0199V21.0199V21.0199V21.02V21.02V21.0201V21.0201V21.0202V21.0202V21.0203V21.0203V21.0203V21.0204V21.0204V21.0205V21.0205V21.0206V21.0206V21.0207V21.0207V21.0207V21.0208V21.0208V21.0209V21.0209V21.021V21.021V21.021V21.0211V21.0211V21.0212V21.0212V21.0213V21.0213V21.0214V21.0214V21.0214V21.0215V21.0215V21.0216V21.0216V21.0217V21.0217V21.0218V21.0218V21.0218V21.0219V21.0219V21.022V21.022V21.0221V21.0221V21.0221V21.0222V21.0222V21.0223V21.0223V21.0224V21.0224V21.0225V21.0225C56.9786 24.5829 59.8651 27.471 63.4271 27.471Z" fill="#0A2864" stroke="#0A2864" stroke-width="0.15"/>
<path d="M82.6301 10.944V11.0803L82.7452 11.0073C84.5771 9.84621 86.7473 9.1725 89.0756 9.1725C95.6207 9.1725 100.926 14.4774 100.926 21.0225C100.926 27.5676 95.6207 32.8725 89.0756 32.8725C82.5305 32.8725 77.2256 27.5676 77.2256 21.0225C77.2256 20.9934 77.2266 20.9644 77.2278 20.934L77.2278 20.9328C77.2289 20.9032 77.2301 20.8722 77.2301 20.841V2.775C77.2301 1.28342 78.4385 0.075 79.9301 0.075C81.4216 0.075 82.6301 1.28342 82.6301 2.775V10.944ZM82.6301 20.925H82.6271V21V21V21.0001V21.0001V21.0002V21.0002V21.0003V21.0003V21.0004V21.0004V21.0004V21.0005V21.0005V21.0006V21.0006V21.0007V21.0007V21.0007V21.0008V21.0008V21.0009V21.0009V21.001V21.001V21.0011V21.0011V21.0011V21.0012V21.0012V21.0013V21.0013V21.0014V21.0014V21.0014V21.0015V21.0015V21.0016V21.0016V21.0017V21.0017V21.0018V21.0018V21.0018V21.0019V21.0019V21.002V21.002V21.0021V21.0021V21.0022V21.0022V21.0022V21.0023V21.0023V21.0024V21.0024V21.0025V21.0025V21.0025V21.0026V21.0026V21.0027V21.0027V21.0028V21.0028V21.0029V21.0029V21.0029V21.003V21.003V21.0031V21.0031V21.0032V21.0032V21.0033V21.0033V21.0033V21.0034V21.0034V21.0035V21.0035V21.0036V21.0036V21.0036V21.0037V21.0037V21.0038V21.0038V21.0039V21.0039V21.004V21.004V21.004V21.0041V21.0041V21.0042V21.0042V21.0043V21.0043V21.0043V21.0044V21.0044V21.0045V21.0045V21.0046V21.0046V21.0047V21.0047V21.0047V21.0048V21.0048V21.0049V21.0049V21.005V21.005V21.0051V21.0051V21.0051V21.0052V21.0052V21.0053V21.0053V21.0054V21.0054V21.0054V21.0055V21.0055V21.0056V21.0056V21.0057V21.0057V21.0058V21.0058V21.0058V21.0059V21.0059V21.006V21.006V21.0061V21.0061V21.0062V21.0062V21.0062V21.0063V21.0063V21.0064V21.0064V21.0065V21.0065V21.0065V21.0066V21.0066V21.0067V21.0067V21.0068V21.0068V21.0069V21.0069V21.0069V21.007V21.007V21.0071V21.0071V21.0072V21.0072V21.0072V21.0073V21.0073V21.0074V21.0074V21.0075V21.0075V21.0076V21.0076V21.0076V21.0077V21.0077V21.0078V21.0078V21.0079V21.0079V21.008V21.008V21.008V21.0081V21.0081V21.0082V21.0082V21.0083V21.0083V21.0083V21.0084V21.0084V21.0085V21.0085V21.0086V21.0086V21.0087V21.0087V21.0087V21.0088V21.0088V21.0089V21.0089V21.009V21.009V21.0091V21.0091V21.0091V21.0092V21.0092V21.0093V21.0093V21.0094V21.0094V21.0094V21.0095V21.0095V21.0096V21.0096V21.0097V21.0097V21.0098V21.0098V21.0098V21.0099V21.0099V21.01V21.01V21.0101V21.0101V21.0101V21.0102V21.0102V21.0103V21.0103V21.0104V21.0104V21.0105V21.0105V21.0105V21.0106V21.0106V21.0107V21.0107V21.0108V21.0108V21.0109V21.0109V21.0109V21.011V21.011V21.0111V21.0111V21.0112V21.0112V21.0112V21.0113V21.0113V21.0114V21.0114V21.0115V21.0115V21.0116V21.0116V21.0116V21.0117V21.0117V21.0118V21.0118V21.0119V21.0119V21.012V21.012V21.012V21.0121V21.0121V21.0122V21.0122V21.0123V21.0123V21.0123V21.0124V21.0124V21.0125V21.0125V21.0126V21.0126V21.0127V21.0127V21.0127V21.0128V21.0128V21.0129V21.0129V21.013V21.013V21.0131V21.0131V21.0131V21.0132V21.0132V21.0133V21.0133V21.0134V21.0134V21.0134V21.0135V21.0135V21.0136V21.0136V21.0137V21.0137V21.0138V21.0138V21.0138V21.0139V21.0139V21.014V21.014V21.0141V21.0141V21.0141V21.0142V21.0142V21.0143V21.0143V21.0144V21.0144V21.0145V21.0145V21.0145V21.0146V21.0146V21.0147V21.0147V21.0148V21.0148V21.0149V21.0149V21.0149V21.015V21.015V21.0151V21.0151V21.0152V21.0152V21.0152V21.0153V21.0153V21.0154V21.0154V21.0155V21.0155V21.0156V21.0156V21.0156V21.0157V21.0157V21.0158V21.0158V21.0159V21.0159V21.0159V21.016V21.016V21.0161V21.0161V21.0162V21.0162V21.0163V21.0163V21.0163V21.0164V21.0164V21.0165V21.0165V21.0166V21.0166V21.0167V21.0167V21.0167V21.0168V21.0168V21.0169V21.0169V21.017V21.017V21.017V21.0171V21.0171V21.0172V21.0172V21.0173V21.0173V21.0174V21.0174V21.0174V21.0175V21.0175V21.0176V21.0176V21.0177V21.0177V21.0178V21.0178V21.0178V21.0179V21.0179V21.018V21.018V21.0181V21.0181V21.0181V21.0182V21.0182V21.0183V21.0183V21.0184V21.0184V21.0185V21.0185V21.0185V21.0186V21.0186V21.0187V21.0187V21.0188V21.0188V21.0189V21.0189V21.0189V21.019V21.019V21.0191V21.0191V21.0192V21.0192V21.0192V21.0193V21.0193V21.0194V21.0194V21.0195V21.0195V21.0196V21.0196V21.0196V21.0197V21.0197V21.0198V21.0198V21.0199V21.0199V21.0199V21.02V21.02V21.0201V21.0201V21.0202V21.0202V21.0203V21.0203V21.0203V21.0204V21.0204V21.0205V21.0205V21.0206V21.0206V21.0207V21.0207V21.0207V21.0208V21.0208V21.0209V21.0209V21.021V21.021V21.021V21.0211V21.0211V21.0212V21.0212V21.0213V21.0213V21.0214V21.0214V21.0214V21.0215V21.0215V21.0216V21.0216V21.0217V21.0217V21.0218V21.0218V21.0218V21.0219V21.0219V21.022V21.022V21.0221V21.0221V21.0221V21.0222V21.0222V21.0223V21.0223V21.0224V21.0224V21.0225V21.0225C82.6271 24.5829 85.5136 27.471 89.0756 27.471C92.636 27.471 95.5241 24.5829 95.5241 21.0225C95.5241 17.4617 92.5876 14.574 89.0756 14.574C85.5637 14.574 82.709 17.3817 82.6301 20.8738H82.6301V20.8755V20.925Z" fill="#0A2864" stroke="#0A2864" stroke-width="0.15"/>
<path d="M125.4 12.0751H125.403C125.403 12.086 125.403 12.0976 125.403 12.1096C125.403 12.1184 125.403 12.127 125.403 12.1333L125.403 12.134C125.404 12.1366 125.404 12.1389 125.404 12.141C125.404 12.1445 125.404 12.1474 125.404 12.1501C125.404 12.1678 125.403 12.1856 125.402 12.2052C125.402 12.2088 125.401 12.2124 125.401 12.2162C125.4 12.2323 125.399 12.2498 125.398 12.2673L125.398 12.2686C125.289 17.7642 121.444 22.3389 116.297 23.5581L116.239 23.5718V23.6311V30.2251C116.239 31.7167 115.031 32.9251 113.539 32.9251C112.047 32.9251 110.839 31.7167 110.839 30.2251V23.6251V23.566L110.782 23.5522C105.767 22.3493 101.993 17.9624 101.72 12.6488L101.721 12.6487L101.719 12.6391C101.69 12.4793 101.673 12.3159 101.673 12.1501C101.673 10.6594 102.931 9.45012 104.373 9.45012C105.814 9.45012 106.989 10.5811 107.065 12.0041L107.069 12.0751H107.106C107.13 15.6163 110.007 18.4786 113.554 18.4786C117.101 18.4786 119.978 15.6163 120.002 12.0751H120.008L120.011 12.0041C120.087 10.5811 121.262 9.45012 122.704 9.45012C124.146 9.45012 125.321 10.5811 125.397 12.0041L125.4 12.0751Z" fill="#0A2864" stroke="#0A2864" stroke-width="0.15"/>
</svg>
