<svg width="54" height="30" viewBox="0 0 54 30" fill="none" xmlns="http://www.w3.org/2000/svg">
<path d="M4.95138 17.8378C5.1694 18.2147 5.40356 18.5825 5.65303 18.9396L5.63943 18.9501L5.63954 18.9502L6.06084 19.496L6.06093 19.4961L6.0744 19.4857C6.60254 20.1072 7.17931 20.6862 7.8 21.2158L7.78896 21.2301C7.78896 21.2301 7.78897 21.2301 7.78897 21.2301C7.78955 21.2306 7.79013 21.231 7.79071 21.2315C7.79159 21.2322 7.79248 21.2328 7.79336 21.2335L8.33477 21.6515L8.33497 21.6516L8.34445 21.6394C8.99101 22.0934 9.67179 22.4953 10.3827 22.8391L10.3752 22.8569L10.3753 22.8569L11.02 23.1283L11.0202 23.1284L11.0274 23.1114C11.6684 23.343 12.3256 23.5267 12.9941 23.6583L12.9909 23.6826L12.9909 23.6826L13.7089 23.7785L13.7094 23.7786L13.7121 23.7589C14.4915 23.8203 15.2743 23.8147 16.0533 23.7487L16.0557 23.7666L16.0559 23.7666L16.7741 23.6706L16.7742 23.6706L16.772 23.654C17.6156 23.5034 18.4524 23.2887 19.2592 22.9994L19.2669 23.0174L19.2674 23.0172L19.9118 22.7459L19.9119 22.7459L19.8962 22.7086C20.0493 22.6238 20.199 22.5338 20.3459 22.4387L20.3636 22.4616L20.3638 22.4615C20.3638 22.4615 20.3638 22.4615 20.3638 22.4615L20.9094 22.0403L20.9096 22.0401L20.9068 22.0365C22.2698 20.9585 23.608 19.8065 24.7678 18.5129L24.7686 18.5134C25.2289 18.0012 25.9173 17.7802 26.6257 17.7477C27.319 17.7159 27.9753 18.0541 28.4809 18.5184C28.7342 18.7543 28.9131 19.033 29.0185 19.3551L29.0175 19.3554L29.0234 19.3667C29.1866 19.6771 29.2604 20.0106 29.2474 20.37L29.2473 20.37V20.3728C29.2473 21.082 28.9453 21.7084 28.476 22.2322C27.6962 23.1016 26.8336 23.8881 25.9423 24.6446L25.9423 24.6446C25.5049 25.0161 25.0613 25.3802 24.6159 25.7431L24.6159 25.7432C24.5674 25.7827 24.519 25.8223 24.4706 25.8619C23.9223 26.3104 23.3735 26.7593 22.7722 27.1214C22.1532 27.4925 21.4659 27.7666 20.7828 28.0137C20.3037 28.1869 19.8154 28.3362 19.3226 28.4631L19.3226 28.4631C18.1007 28.7783 16.8022 28.9681 15.5708 29.0339C14.3421 29.0995 13.1179 28.9832 11.9018 28.7783C11.0713 28.6382 10.2555 28.413 9.46632 28.1146C8.47734 27.7391 7.50225 27.3044 6.59834 26.7629C5.69388 26.2211 4.83934 25.5759 4.03914 24.8893L4.03909 24.8893C3.39435 24.3371 2.79737 23.7297 2.25711 23.076L2.25707 23.0759C1.58061 22.2588 0.94593 21.4059 0.417776 20.4898C0.0584526 19.8657 0.00177001 19.1372 0.154448 18.4633C0.304602 17.8006 0.796132 17.2616 1.36238 16.8958C1.66038 16.7049 1.98209 16.6026 2.32874 16.5867L2.32879 16.5879L2.34183 16.5849C2.68703 16.5069 3.03358 16.5227 3.37985 16.6313L3.37983 16.6314L3.38247 16.6321C4.01452 16.8054 4.62979 17.2819 4.95138 17.8378Z" fill="#0A2864" stroke="#0A2864" stroke-width="0.15"/>
<path d="M24.6302 22.2788L24.6834 22.2259C24.3592 21.9003 24.1352 21.5158 24.0094 21.0726L23.9145 20.3627C23.8839 19.6706 24.2218 19.0155 24.6853 18.5108C24.9213 18.2575 25.1999 18.0786 25.5221 17.9731L25.5224 17.9741L25.5336 17.9682C25.8441 17.805 26.1776 17.7312 26.537 17.7443L26.537 17.7445L26.5425 17.7443C26.9019 17.7312 27.2353 17.805 27.5458 17.9682L27.5453 17.9692L27.5577 17.9732C27.8795 18.0771 28.1579 18.2558 28.3938 18.5103C29.5555 19.8062 30.8946 20.9567 32.2584 22.0359L32.2554 22.0397L32.2555 22.0398L32.8013 22.4611L32.8014 22.4612L32.8188 22.4387C32.9656 22.5338 33.1154 22.6239 33.2686 22.7086L33.2531 22.7455L33.2532 22.7455C33.2533 22.7455 33.2534 22.7455 33.2534 22.7456L33.8977 23.0168L33.8981 23.017L33.9057 22.9991C34.7118 23.2883 35.5487 23.5029 36.3915 23.6535L36.3893 23.6702L36.3894 23.6702L37.1076 23.7661L37.1078 23.7662L37.1102 23.7488C37.8702 23.8133 38.6341 23.8201 39.3956 23.7631L39.3987 23.7857L39.3987 23.7857L40.1168 23.6897L40.1172 23.6897L40.1144 23.6688C40.8016 23.5366 41.4768 23.3493 42.1348 23.1112L42.1418 23.128L42.1421 23.1279L42.7868 22.8565L42.7868 22.8565L42.7792 22.8384C43.4893 22.4945 44.1702 22.0922 44.816 21.6389L44.8256 21.6512L44.8258 21.651L45.3671 21.2331C45.3686 21.232 45.3701 21.2308 45.3716 21.2297L45.3606 21.2155C45.9817 20.686 46.5593 20.1075 47.0879 19.4854L47.1011 19.4957L47.1011 19.4956L47.5225 18.9498L47.5226 18.9497L47.5099 18.9398C47.7598 18.5829 47.9941 18.2153 48.2122 17.8373M48.2122 17.8373C48.2122 17.8373 48.2122 17.8374 48.2122 17.8374L48.1473 17.7999L48.2122 17.8373Z" fill="#0A2864" stroke="#0A2864" stroke-width="0.15"/>
<path d="M26.5185 6.19883L25.2255 4.40633C24.435 3.31283 23.2005 2.73083 21.9465 2.73083C21.1275 2.73083 20.3025 2.97983 19.587 3.49433C17.7795 4.79933 17.3715 7.32383 18.6765 9.13133L21.519 13.0703L26.4915 19.9613L31.491 13.0883" stroke="#0A2864" stroke-width="4.65" stroke-linecap="round" stroke-linejoin="round"/>
<path d="M21.5206 13.0719L26.4931 19.9629L31.4926 13.0899L34.4776 8.98586C35.7886 7.18286 35.3911 4.65687 33.5866 3.34587C32.8696 2.82387 32.0386 2.57336 31.2151 2.57336C29.9686 2.57336 28.7371 3.15086 27.9466 4.23536L26.5186 6.19886" stroke="#0A2864" stroke-width="4.65" stroke-linecap="round" stroke-linejoin="round"/>
<path d="M26.6262 21.1824H26.5397" stroke="#0A2864" stroke-width="1.8" stroke-miterlimit="10"/>
</svg>
