<svg width="226" height="60" viewBox="0 0 226 60" fill="none" xmlns="http://www.w3.org/2000/svg">
<path d="M9.95321 19.7474V19.8838L10.0684 19.8108C13.385 17.7076 17.3109 16.4861 21.5282 16.4861C33.3682 16.4861 42.9648 26.0827 42.9648 37.9228C42.9648 49.7628 33.3682 59.3594 21.5282 59.3594C9.6881 59.3594 0.0914795 49.7628 0.0914795 37.9228V37.9227V37.9226V37.9225V37.9225V37.9224V37.9223V37.9222V37.9221V37.9221V37.922V37.9219V37.9218V37.9217V37.9217V37.9216V37.9215V37.9214V37.9213V37.9213V37.9212V37.9211V37.921V37.921V37.9209V37.9208V37.9207V37.9206V37.9206V37.9205V37.9204V37.9203V37.9202V37.9202V37.9201V37.92V37.9199V37.9198V37.9198V37.9197V37.9196V37.9195V37.9194V37.9194V37.9193V37.9192V37.9191V37.919V37.919V37.9189V37.9188V37.9187V37.9187V37.9186V37.9185V37.9184V37.9183V37.9183V37.9182V37.9181V37.918V37.9179V37.9179V37.9178V37.9177V37.9176V37.9175V37.9175V37.9174V37.9173V37.9172V37.9171V37.9171V37.917V37.9169V37.9168V37.9167V37.9167V37.9166V37.9165V37.9164V37.9164V37.9163V37.9162V37.9161V37.916V37.916V37.9159V37.9158V37.9157V37.9156V37.9156V37.9155V37.9154V37.9153V37.9152V37.9152V37.9151V37.915V37.9149V37.9148V37.9148V37.9147V37.9146V37.9145V37.9145V37.9144V37.9143V37.9142V37.9141V37.9141V37.914V37.9139V37.9138V37.9137V37.9137V37.9136V37.9135V37.9134V37.9133V37.9133V37.9132V37.9131V37.913V37.9129V37.9129V37.9128V37.9127V37.9126V37.9125V37.9125V37.9124V37.9123V37.9122V37.9122V37.9121V37.912V37.9119V37.9118V37.9118V37.9117V37.9116V37.9115V37.9114V37.9114V37.9113V37.9112V37.9111V37.911V37.911V37.9109V37.9108V37.9107V37.9106V37.9106V37.9105V37.9104V37.9103V37.9102V37.9102V37.9101V37.91V37.9099V37.9099V37.9098V37.9097V37.9096V37.9095V37.9095V37.9094V37.9093V37.9092V37.9091V37.9091V37.909V37.9089V37.9088V37.9087V37.9087V37.9086V37.9085V37.9084V37.9083V37.9083V37.9082V37.9081V37.908V37.908V37.9079V37.9078V37.9077V37.9076V37.9076V37.9075V37.9074V37.9073V37.9072V37.9072V37.9071V37.907V37.9069V37.9068V37.9068V37.9067V37.9066V37.9065V37.9064V37.9064V37.9063V37.9062V37.9061V37.906V37.906V37.9059V37.9058V37.9057V37.9057V37.9056V37.9055V37.9054V37.9053V37.9053V37.9052V37.9051V37.905V37.9049V37.9049V37.9048V37.9047V37.9046V37.9045V37.9045V37.9044V37.9043V37.9042V37.9041V37.9041V37.904V37.9039V37.9038V37.9037V37.9037V37.9036V37.9035V37.9034V37.9034V37.9033V37.9032V37.9031V37.903V37.903V37.9029V37.9028V37.9027V37.9026V37.9026V37.9025V37.9024V37.9023V37.9022V37.9022V37.9021V37.902V37.9019V37.9018V37.9018V37.9017V37.9016V37.9015V37.9015V37.9014V37.9013V37.9012V37.9011V37.9011V37.901V37.9009V37.9008V37.9007V37.9007V37.9006V37.9005V37.9004V37.9003V37.9003V37.9002V37.9001V37.9V37.8999V37.8999V37.8998V37.8997V37.8996V37.8995V37.8995V37.8994V37.8993V37.8992V37.8992V37.8991V37.899V37.8989V37.8988V37.8988V37.8987V37.8986V37.8985V37.8984V37.8984V37.8983V37.8982V37.8981V37.898V37.898V37.8979V37.8978V37.8977V37.8976V37.8976V37.8975V37.8974V37.8973V37.8973V37.8972V37.8971V37.897V37.8969V37.8969V37.8968V37.8967V37.8966V37.8965V37.8965V37.8964V37.8963V37.8962V37.8961V37.8961V37.896V37.8959V37.8958V37.8957V37.8957V37.8956V37.8955V37.8954V37.8953V37.8953V37.8952V37.8951V37.895V37.895V37.8949V37.8948V37.8947V37.8946V37.8946V37.8945V37.8944V37.8943V37.8942V37.8942V37.8941V37.894V37.8939V37.8938V37.8938V37.8937V37.8936V37.8935V37.8934V37.8934V37.8933V37.8932V37.8931V37.893V37.893V37.8929V37.8928V37.8927V37.8927V37.8926V37.8925V37.8924V37.8923V37.8923V37.8922V37.8921V37.892V37.8919V37.8919V37.8918V37.8917V37.8916V37.8915V37.8915V37.8914V37.8913V37.8912V37.8911V37.8911V37.891V37.8909V37.8908V37.8908V37.8907V37.8906V37.8905V37.8904V37.8904V37.8903V37.8902V37.8901V37.89V37.89V37.8899V37.8898V37.8897V37.8896V37.8896V37.8895V37.8894V37.8893V37.8892V37.8892V37.8891V37.889V37.8889V37.8888V37.8888V37.8887V37.8886V37.8885V37.8885V37.8884V37.8883V37.8882V37.8881V37.8881V37.888V37.8879V37.8878V37.8877V37.8877V37.8876V37.8875V37.8874V37.8873V37.8873V37.8872V37.8871V37.887V37.8869V37.8869V37.8868V37.8867V37.8866V37.8865V37.8865V37.8864V37.8863V37.8862V37.8862V37.8861V37.886V37.8859V37.8858V37.8858V37.8857V37.8856V37.8855V37.8854V37.8854V37.8853V37.8852V37.8851V37.885V37.885V37.8849V37.8848V37.8847V37.8846V37.8846V37.8845V37.8844V37.8843V37.8843V37.8842V37.8841V37.884V37.8839V37.8839V37.8838V37.8837V37.8836V37.8835V37.8835V37.8834V37.8833V37.8832V37.8831V37.8831V37.883V37.8829V37.8828V37.8827V37.8827V37.8826V37.8825V37.8824V37.8823V37.8823V37.8822V5.00586C0.0914795 2.28188 2.29836 0.075 5.02234 0.075C7.74632 0.075 9.95321 2.28188 9.95321 5.00586V19.7474ZM9.9559 37.9228C9.9559 44.3122 15.136 49.495 21.5282 49.495C27.9176 49.495 33.1004 44.3122 33.1004 37.9228C33.1004 31.5334 27.9176 26.3505 21.5282 26.3505C15.1388 26.3505 9.9559 31.5334 9.9559 37.9228Z" fill="#FFF8EB" stroke="#FFF8EB" stroke-width="0.15"/>
<path d="M46.3589 37.9228C46.3589 26.0827 55.9555 16.4861 67.7956 16.4861C79.6357 16.4861 89.2323 26.0827 89.2323 37.9228C89.2323 49.7629 79.6357 59.3595 67.7956 59.3595C55.9555 59.3595 46.3589 49.7629 46.3589 37.9228ZM56.2234 37.9228C56.2234 44.3122 61.4035 49.495 67.7956 49.495C74.185 49.495 79.3678 44.3122 79.3678 37.9228C79.3678 31.5334 74.185 26.3506 67.7956 26.3506C61.4062 26.3506 56.2234 31.5334 56.2234 37.9228Z" fill="#FFF8EB" stroke="#FFF8EB" stroke-width="0.15"/>
<path d="M102.494 19.7422V19.8784L102.609 19.8055C105.923 17.7077 109.849 16.4862 114.064 16.4862C125.904 16.4862 135.5 26.0828 135.5 37.9229C135.5 49.763 125.904 59.3596 114.064 59.3596C102.223 59.3596 92.6269 49.763 92.6269 37.9229C92.6269 37.8866 92.6282 37.85 92.6295 37.8119L92.6296 37.8113C92.6309 37.7738 92.6323 37.7348 92.6323 37.6956V5.00598C92.6323 2.28201 94.8392 0.0751221 97.5632 0.0751221C100.287 0.0751221 102.494 2.28201 102.494 5.00598V19.7422ZM114.064 49.4951H114.139V49.4922C120.493 49.4518 125.636 44.2846 125.636 37.9202C125.636 31.5306 120.399 26.3479 114.064 26.3479C107.729 26.3479 102.584 31.4409 102.494 37.7541V37.7551V37.8073H102.491V37.8823V37.8824V37.8825V37.8825V37.8826V37.8827V37.8828V37.8829V37.8829V37.883V37.8831V37.8832V37.8833V37.8833V37.8834V37.8835V37.8836V37.8837V37.8837V37.8838V37.8839V37.884V37.8841V37.8841V37.8842V37.8843V37.8844V37.8844V37.8845V37.8846V37.8847V37.8848V37.8848V37.8849V37.885V37.8851V37.8852V37.8852V37.8853V37.8854V37.8855V37.8856V37.8856V37.8857V37.8858V37.8859V37.886V37.886V37.8861V37.8862V37.8863V37.8864V37.8864V37.8865V37.8866V37.8867V37.8867V37.8868V37.8869V37.887V37.8871V37.8871V37.8872V37.8873V37.8874V37.8875V37.8875V37.8876V37.8877V37.8878V37.8879V37.8879V37.888V37.8881V37.8882V37.8883V37.8883V37.8884V37.8885V37.8886V37.8887V37.8887V37.8888V37.8889V37.889V37.889V37.8891V37.8892V37.8893V37.8894V37.8894V37.8895V37.8896V37.8897V37.8898V37.8898V37.8899V37.89V37.8901V37.8902V37.8902V37.8903V37.8904V37.8905V37.8906V37.8906V37.8907V37.8908V37.8909V37.8909V37.891V37.8911V37.8912V37.8913V37.8913V37.8914V37.8915V37.8916V37.8917V37.8917V37.8918V37.8919V37.892V37.8921V37.8921V37.8922V37.8923V37.8924V37.8925V37.8925V37.8926V37.8927V37.8928V37.8929V37.8929V37.893V37.8931V37.8932V37.8932V37.8933V37.8934V37.8935V37.8936V37.8936V37.8937V37.8938V37.8939V37.894V37.894V37.8941V37.8942V37.8943V37.8944V37.8944V37.8945V37.8946V37.8947V37.8948V37.8948V37.8949V37.895V37.8951V37.8952V37.8952V37.8953V37.8954V37.8955V37.8955V37.8956V37.8957V37.8958V37.8959V37.8959V37.896V37.8961V37.8962V37.8963V37.8963V37.8964V37.8965V37.8966V37.8967V37.8967V37.8968V37.8969V37.897V37.8971V37.8971V37.8972V37.8973V37.8974V37.8974V37.8975V37.8976V37.8977V37.8978V37.8978V37.8979V37.898V37.8981V37.8982V37.8982V37.8983V37.8984V37.8985V37.8986V37.8986V37.8987V37.8988V37.8989V37.899V37.899V37.8991V37.8992V37.8993V37.8994V37.8994V37.8995V37.8996V37.8997V37.8997V37.8998V37.8999V37.9V37.9001V37.9001V37.9002V37.9003V37.9004V37.9005V37.9005V37.9006V37.9007V37.9008V37.9009V37.9009V37.901V37.9011V37.9012V37.9013V37.9013V37.9014V37.9015V37.9016V37.9017V37.9017V37.9018V37.9019V37.902V37.9021V37.9021V37.9022V37.9023V37.9024V37.9024V37.9025V37.9026V37.9027V37.9028V37.9028V37.9029V37.903V37.9031V37.9032V37.9032V37.9033V37.9034V37.9035V37.9036V37.9036V37.9037V37.9038V37.9039V37.9039V37.904V37.9041V37.9042V37.9043V37.9043V37.9044V37.9045V37.9046V37.9047V37.9047V37.9048V37.9049V37.905V37.9051V37.9051V37.9052V37.9053V37.9054V37.9055V37.9055V37.9056V37.9057V37.9058V37.9059V37.9059V37.906V37.9061V37.9062V37.9062V37.9063V37.9064V37.9065V37.9066V37.9066V37.9067V37.9068V37.9069V37.907V37.907V37.9071V37.9072V37.9073V37.9074V37.9074V37.9075V37.9076V37.9077V37.9078V37.9078V37.9079V37.908V37.9081V37.9082V37.9082V37.9083V37.9084V37.9085V37.9086V37.9086V37.9087V37.9088V37.9089V37.9089V37.909V37.9091V37.9092V37.9093V37.9093V37.9094V37.9095V37.9096V37.9097V37.9097V37.9098V37.9099V37.91V37.9101V37.9101V37.9102V37.9103V37.9104V37.9104V37.9105V37.9106V37.9107V37.9108V37.9108V37.9109V37.911V37.9111V37.9112V37.9112V37.9113V37.9114V37.9115V37.9116V37.9116V37.9117V37.9118V37.9119V37.912V37.912V37.9121V37.9122V37.9123V37.9124V37.9124V37.9125V37.9126V37.9127V37.9128V37.9128V37.9129V37.913V37.9131V37.9131V37.9132V37.9133V37.9134V37.9135V37.9135V37.9136V37.9137V37.9138V37.9139V37.9139V37.914V37.9141V37.9142V37.9143V37.9143V37.9144V37.9145V37.9146V37.9147V37.9147V37.9148V37.9149V37.915V37.915V37.9151V37.9152V37.9153V37.9154V37.9154V37.9155V37.9156V37.9157V37.9158V37.9158V37.9159V37.916V37.9161V37.9162V37.9162V37.9163V37.9164V37.9165V37.9166V37.9166V37.9167V37.9168V37.9169V37.917V37.917V37.9171V37.9172V37.9173V37.9173V37.9174V37.9175V37.9176V37.9177V37.9177V37.9178V37.9179V37.918V37.9181V37.9181V37.9182V37.9183V37.9184V37.9185V37.9185V37.9186V37.9187V37.9188V37.9189V37.9189V37.919V37.9191V37.9192V37.9193V37.9193V37.9194V37.9195V37.9196V37.9196V37.9197V37.9198V37.9199V37.92V37.92V37.9201V37.9202V37.9203V37.9204V37.9204V37.9205V37.9206V37.9207V37.9208V37.9208V37.9209V37.921V37.9211V37.9212V37.9212V37.9213V37.9214V37.9215V37.9215V37.9216V37.9217V37.9218V37.9219V37.9219V37.922V37.9221V37.9222V37.9223V37.9223V37.9224V37.9225V37.9226V37.9227V37.9227V37.9228V37.9229C102.491 44.3123 107.671 49.4951 114.064 49.4951Z" fill="#FFF8EB" stroke="#FFF8EB" stroke-width="0.15"/>
<path d="M148.764 19.7422V19.8785L148.879 19.8055C152.193 17.705 156.119 16.4862 160.331 16.4862C172.171 16.4862 181.768 26.0828 181.768 37.9229C181.768 49.763 172.171 59.3596 160.331 59.3596C148.491 59.3596 138.894 49.763 138.894 37.9229C138.894 37.869 138.896 37.8156 138.898 37.761L138.899 37.7593C138.901 37.7056 138.903 37.6507 138.903 37.5955V5.00598C138.903 2.28201 141.109 0.0751221 143.833 0.0751221C146.557 0.0751221 148.764 2.28201 148.764 5.00598V19.7422ZM148.764 37.8073H148.759V37.8823V37.8824V37.8825V37.8825V37.8826V37.8827V37.8828V37.8829V37.8829V37.883V37.8831V37.8832V37.8833V37.8833V37.8834V37.8835V37.8836V37.8837V37.8837V37.8838V37.8839V37.884V37.8841V37.8841V37.8842V37.8843V37.8844V37.8844V37.8845V37.8846V37.8847V37.8848V37.8848V37.8849V37.885V37.8851V37.8852V37.8852V37.8853V37.8854V37.8855V37.8856V37.8856V37.8857V37.8858V37.8859V37.886V37.886V37.8861V37.8862V37.8863V37.8864V37.8864V37.8865V37.8866V37.8867V37.8867V37.8868V37.8869V37.887V37.8871V37.8871V37.8872V37.8873V37.8874V37.8875V37.8875V37.8876V37.8877V37.8878V37.8879V37.8879V37.888V37.8881V37.8882V37.8883V37.8883V37.8884V37.8885V37.8886V37.8887V37.8887V37.8888V37.8889V37.889V37.889V37.8891V37.8892V37.8893V37.8894V37.8894V37.8895V37.8896V37.8897V37.8898V37.8898V37.8899V37.89V37.8901V37.8902V37.8902V37.8903V37.8904V37.8905V37.8906V37.8906V37.8907V37.8908V37.8909V37.8909V37.891V37.8911V37.8912V37.8913V37.8913V37.8914V37.8915V37.8916V37.8917V37.8917V37.8918V37.8919V37.892V37.8921V37.8921V37.8922V37.8923V37.8924V37.8925V37.8925V37.8926V37.8927V37.8928V37.8929V37.8929V37.893V37.8931V37.8932V37.8932V37.8933V37.8934V37.8935V37.8936V37.8936V37.8937V37.8938V37.8939V37.894V37.894V37.8941V37.8942V37.8943V37.8944V37.8944V37.8945V37.8946V37.8947V37.8948V37.8948V37.8949V37.895V37.8951V37.8952V37.8952V37.8953V37.8954V37.8955V37.8955V37.8956V37.8957V37.8958V37.8959V37.8959V37.896V37.8961V37.8962V37.8963V37.8963V37.8964V37.8965V37.8966V37.8967V37.8967V37.8968V37.8969V37.897V37.8971V37.8971V37.8972V37.8973V37.8974V37.8974V37.8975V37.8976V37.8977V37.8978V37.8978V37.8979V37.898V37.8981V37.8982V37.8982V37.8983V37.8984V37.8985V37.8986V37.8986V37.8987V37.8988V37.8989V37.899V37.899V37.8991V37.8992V37.8993V37.8994V37.8994V37.8995V37.8996V37.8997V37.8997V37.8998V37.8999V37.9V37.9001V37.9001V37.9002V37.9003V37.9004V37.9005V37.9005V37.9006V37.9007V37.9008V37.9009V37.9009V37.901V37.9011V37.9012V37.9013V37.9013V37.9014V37.9015V37.9016V37.9017V37.9017V37.9018V37.9019V37.902V37.9021V37.9021V37.9022V37.9023V37.9024V37.9024V37.9025V37.9026V37.9027V37.9028V37.9028V37.9029V37.903V37.9031V37.9032V37.9032V37.9033V37.9034V37.9035V37.9036V37.9036V37.9037V37.9038V37.9039V37.9039V37.904V37.9041V37.9042V37.9043V37.9043V37.9044V37.9045V37.9046V37.9047V37.9047V37.9048V37.9049V37.905V37.9051V37.9051V37.9052V37.9053V37.9054V37.9055V37.9055V37.9056V37.9057V37.9058V37.9059V37.9059V37.906V37.9061V37.9062V37.9062V37.9063V37.9064V37.9065V37.9066V37.9066V37.9067V37.9068V37.9069V37.907V37.907V37.9071V37.9072V37.9073V37.9074V37.9074V37.9075V37.9076V37.9077V37.9078V37.9078V37.9079V37.908V37.9081V37.9082V37.9082V37.9083V37.9084V37.9085V37.9086V37.9086V37.9087V37.9088V37.9089V37.9089V37.909V37.9091V37.9092V37.9093V37.9093V37.9094V37.9095V37.9096V37.9097V37.9097V37.9098V37.9099V37.91V37.9101V37.9101V37.9102V37.9103V37.9104V37.9104V37.9105V37.9106V37.9107V37.9108V37.9108V37.9109V37.911V37.9111V37.9112V37.9112V37.9113V37.9114V37.9115V37.9116V37.9116V37.9117V37.9118V37.9119V37.912V37.912V37.9121V37.9122V37.9123V37.9124V37.9124V37.9125V37.9126V37.9127V37.9128V37.9128V37.9129V37.913V37.9131V37.9131V37.9132V37.9133V37.9134V37.9135V37.9135V37.9136V37.9137V37.9138V37.9139V37.9139V37.914V37.9141V37.9142V37.9143V37.9143V37.9144V37.9145V37.9146V37.9147V37.9147V37.9148V37.9149V37.915V37.915V37.9151V37.9152V37.9153V37.9154V37.9154V37.9155V37.9156V37.9157V37.9158V37.9158V37.9159V37.916V37.9161V37.9162V37.9162V37.9163V37.9164V37.9165V37.9166V37.9166V37.9167V37.9168V37.9169V37.917V37.917V37.9171V37.9172V37.9173V37.9173V37.9174V37.9175V37.9176V37.9177V37.9177V37.9178V37.9179V37.918V37.9181V37.9181V37.9182V37.9183V37.9184V37.9185V37.9185V37.9186V37.9187V37.9188V37.9189V37.9189V37.919V37.9191V37.9192V37.9193V37.9193V37.9194V37.9195V37.9196V37.9196V37.9197V37.9198V37.9199V37.92V37.92V37.9201V37.9202V37.9203V37.9204V37.9204V37.9205V37.9206V37.9207V37.9208V37.9208V37.9209V37.921V37.9211V37.9212V37.9212V37.9213V37.9214V37.9215V37.9215V37.9216V37.9217V37.9218V37.9219V37.9219V37.922V37.9221V37.9222V37.9223V37.9223V37.9224V37.9225V37.9226V37.9227V37.9227V37.9228V37.9229C148.759 44.3123 153.939 49.4951 160.331 49.4951C166.721 49.4951 171.903 44.3123 171.903 37.9229C171.903 31.5331 166.634 26.3507 160.331 26.3507C154.029 26.3507 148.906 31.3892 148.764 37.656V37.6577V37.8073Z" fill="#FFF8EB" stroke="#FFF8EB" stroke-width="0.15"/>
<path d="M225.912 21.6511L225.915 21.7221H225.925C225.925 21.7382 225.924 21.7542 225.924 21.7708C225.923 21.7943 225.922 21.8191 225.922 21.8447C225.922 21.859 225.923 21.8731 225.924 21.8848L225.924 21.8854C225.924 21.8979 225.925 21.908 225.925 21.9177C225.925 21.9516 225.923 21.9854 225.921 22.021C225.92 22.0277 225.92 22.0345 225.919 22.0413C225.917 22.0703 225.915 22.1007 225.914 22.1314L225.914 22.1327C225.717 32.0744 218.761 40.3498 209.45 42.5555L209.392 42.5691V42.6285V54.5235C209.392 57.2474 207.185 59.4543 204.461 59.4543C201.737 59.4543 199.53 57.2474 199.53 54.5235V42.6176V42.5585L199.473 42.5447C190.402 40.3687 183.575 32.4329 183.081 22.8203L183.082 22.8203L183.08 22.8107C183.027 22.5194 182.995 22.2209 182.995 21.9177C182.995 19.1946 185.293 16.9869 187.926 16.9869C190.559 16.9869 192.704 19.0524 192.843 21.6511L192.847 21.7221H192.916C192.927 28.1046 198.103 33.2735 204.488 33.2735C210.873 33.2735 216.049 28.1046 216.06 21.7221H216.073L216.077 21.6511C216.215 19.0524 218.361 16.9869 220.994 16.9869C223.627 16.9869 225.773 19.0524 225.912 21.6511Z" fill="#FFF8EB" stroke="#FFF8EB" stroke-width="0.15"/>
</svg>
