<svg width="24" height="24" viewBox="0 0 24 24" fill="none" xmlns="http://www.w3.org/2000/svg">
<path d="M23.52 12.2729C23.52 11.422 23.4436 10.6038 23.3018 9.81836H12V14.4602H18.4582C18.18 15.9602 17.3345 17.2311 16.0636 18.082V21.0929H19.9418C22.2109 19.0038 23.52 15.9275 23.52 12.2729V12.2729Z" fill="#FFF8EB"/>
<path d="M12.002 23.9954C15.242 23.9954 17.9583 22.9208 19.9438 21.0881L16.0656 18.0772C14.991 18.7972 13.6165 19.2227 12.002 19.2227C8.8765 19.2227 6.23105 17.1118 5.28741 14.2754H1.27832V17.3845C3.25287 21.3063 7.31105 23.9954 12.002 23.9954Z" fill="#FFF8EB"/>
<path d="M5.28546 14.2803C5.04546 13.5603 4.90909 12.7912 4.90909 12.0003C4.90909 11.2094 5.04546 10.4403 5.28546 9.7203V6.61121H1.27636C0.436364 8.28342 -0.000740319 10.129 9.41222e-07 12.0003C9.41222e-07 13.9367 0.463637 15.7694 1.27636 17.3894L5.28546 14.2803Z" fill="#FFF8EB"/>
<path d="M12.002 4.77273C13.7638 4.77273 15.3456 5.37818 16.5892 6.56727L20.031 3.12545C17.9529 1.18909 15.2365 0 12.002 0C7.31105 0 3.25287 2.68909 1.27832 6.61091L5.28741 9.72C6.23105 6.88364 8.8765 4.77273 12.002 4.77273Z" fill="#FFF8EB"/>
</svg>
