<svg width="102" height="102" viewBox="0 0 102 102" fill="none" xmlns="http://www.w3.org/2000/svg">
<path d="M39.8438 55.7813C39.8438 57.0421 39.4699 58.2747 38.7694 59.3231C38.0689 60.3714 37.0732 61.1885 35.9084 61.671C34.7435 62.1535 33.4617 62.2798 32.2251 62.0338C30.9884 61.7878 29.8525 61.1807 28.961 60.2891C28.0694 59.3975 27.4622 58.2616 27.2163 57.025C26.9703 55.7884 27.0965 54.5066 27.579 53.3417C28.0615 52.1768 28.8786 51.1812 29.927 50.4807C30.9754 49.7802 32.2079 49.4063 33.4688 49.4063C35.1595 49.4063 36.781 50.0779 37.9766 51.2735C39.1721 52.469 39.8438 54.0905 39.8438 55.7813ZM68.5313 49.4063C67.2704 49.4063 66.0379 49.7802 64.9895 50.4807C63.9411 51.1812 63.124 52.1768 62.6415 53.3417C62.159 54.5066 62.0328 55.7884 62.2788 57.025C62.5247 58.2616 63.1319 59.3975 64.0235 60.2891C64.915 61.1807 66.0509 61.7878 67.2876 62.0338C68.5242 62.2798 69.806 62.1535 70.9709 61.671C72.1357 61.1885 73.1314 60.3714 73.8319 59.3231C74.5324 58.2747 74.9063 57.0421 74.9063 55.7813C74.9063 54.0905 74.2346 52.469 73.0391 51.2735C71.8435 50.0779 70.222 49.4063 68.5313 49.4063ZM94.0313 20.4399V54.1875C94.0313 76.1414 74.7469 94.0313 51 94.0313C27.2531 94.0313 7.96876 76.1414 7.96876 54.1875V20.4399C7.95614 18.8601 8.41573 17.3126 9.28858 15.9958C10.1614 14.679 11.4077 13.653 12.8677 13.0493C14.3276 12.4456 15.9346 12.2919 17.4825 12.6077C19.0304 12.9235 20.4487 13.6946 21.5555 14.8219L27.532 20.7985C31.9533 18.1583 36.7896 16.2858 41.8359 15.2602C42.0714 15.2011 42.3112 15.1611 42.5531 15.1407C48.1343 14.0785 53.8657 14.0785 59.4469 15.1407C59.6888 15.1611 59.9286 15.2011 60.1641 15.2602C65.2104 16.2858 70.0467 18.1583 74.468 20.7985L80.4445 14.8219C81.5513 13.6946 82.9696 12.9235 84.5175 12.6077C86.0654 12.2919 87.6724 12.4456 89.1323 13.0493C90.5923 13.653 91.8386 14.679 92.7114 15.9958C93.5843 17.3126 94.0439 18.8601 94.0313 20.4399ZM84.4688 24.3047L78.4524 30.3211C77.6375 31.1356 76.5558 31.6285 75.4065 31.709C74.2572 31.7895 73.1174 31.4523 72.1969 30.7594C69.6079 28.8469 66.7649 27.3047 63.75 26.1774V35.0625C63.75 36.3306 63.2463 37.5467 62.3496 38.4434C61.453 39.3401 60.2368 39.8438 58.9688 39.8438C57.7007 39.8438 56.4846 39.3401 55.5879 38.4434C54.6912 37.5467 54.1875 36.3306 54.1875 35.0625V24.0657C52.0678 23.8532 49.9322 23.8532 47.8125 24.0657V35.0625C47.8125 36.3306 47.3088 37.5467 46.4121 38.4434C45.5155 39.3401 44.2993 39.8438 43.0313 39.8438C41.7632 39.8438 40.5471 39.3401 39.6504 38.4434C38.7537 37.5467 38.25 36.3306 38.25 35.0625V26.1774C35.2351 27.3047 32.3921 28.8469 29.8031 30.7594C28.8826 31.4523 27.7429 31.7895 26.5935 31.709C25.4442 31.6285 24.3626 31.1356 23.5477 30.3211L17.5313 24.3047V54.1875C17.5313 69.4079 30.0024 82.0383 46.2188 84.15V78.4922L41.2383 73.5118C40.3401 72.6135 39.8355 71.3953 39.8355 70.125C39.8355 68.8548 40.3401 67.6365 41.2383 66.7383C42.1365 65.8401 43.3547 65.3355 44.625 65.3355C45.8953 65.3355 47.1135 65.8401 48.0117 66.7383L51 69.7266L53.9883 66.7383C54.8865 65.8401 56.1047 65.3355 57.375 65.3355C58.6453 65.3355 59.8635 65.8401 60.7617 66.7383C61.6599 67.6365 62.1646 68.8548 62.1646 70.125C62.1646 71.3953 61.6599 72.6135 60.7617 73.5118L55.7813 78.4922V84.15C71.9977 82.0383 84.4688 69.4079 84.4688 54.1875V24.3047Z" fill="#1746A2"/>
</svg>
