<svg width="17" height="17" viewBox="0 0 17 17" fill="none" xmlns="http://www.w3.org/2000/svg">
<path d="M6.90624 9.29688C6.90624 9.45449 6.85951 9.60856 6.77194 9.7396C6.68438 9.87065 6.55993 9.97279 6.41432 10.0331C6.26871 10.0934 6.10848 10.1092 5.9539 10.0784C5.79932 10.0477 5.65734 9.9718 5.54589 9.86036C5.43445 9.74891 5.35855 9.60692 5.3278 9.45235C5.29706 9.29777 5.31284 9.13754 5.37315 8.99193C5.43346 8.84632 5.5356 8.72187 5.66665 8.63431C5.79769 8.54674 5.95176 8.50001 6.10937 8.50001C6.32071 8.50001 6.5234 8.58396 6.67284 8.73341C6.82229 8.88285 6.90624 9.08554 6.90624 9.29688ZM10.8906 10.0938C11.0482 10.0938 11.2023 10.047 11.3333 9.95946C11.4644 9.8719 11.5665 9.74744 11.6268 9.60183C11.6871 9.45622 11.7029 9.296 11.6722 9.14142C11.6414 8.98684 11.5655 8.84485 11.4541 8.73341C11.3426 8.62196 11.2007 8.54607 11.0461 8.51532C10.8915 8.48457 10.7313 8.50035 10.5857 8.56067C10.4401 8.62098 10.3156 8.72312 10.228 8.85416C10.1405 8.98521 10.0937 9.13928 10.0937 9.29688C10.0937 9.50823 10.1777 9.71092 10.3271 9.86036C10.4766 10.0098 10.6793 10.0938 10.8906 10.0938ZM15.4527 9.56251C15.3128 9.62503 15.1611 9.65673 15.0078 9.65548C14.7653 9.65597 14.5303 9.57137 14.3437 9.41641V12.2188C14.3437 12.9232 14.0639 13.5989 13.5657 14.097C13.0676 14.5952 12.392 14.875 11.6875 14.875H5.31249C4.60801 14.875 3.93238 14.5952 3.43424 14.097C2.93609 13.5989 2.65624 12.9232 2.65624 12.2188V9.41641C2.46969 9.57137 2.23469 9.65597 1.99218 9.65548C1.83892 9.65673 1.68719 9.62503 1.54726 9.56251C1.32834 9.46582 1.14906 9.2972 1.03915 9.08462C0.929234 8.87204 0.895294 8.62828 0.942959 8.39376L2.03202 2.58321C2.0594 2.44117 2.11532 2.30616 2.19639 2.18636C2.27747 2.06656 2.38201 1.96446 2.50369 1.88623C2.62537 1.80801 2.76166 1.75529 2.90431 1.73127C3.04696 1.70725 3.193 1.71243 3.33358 1.74649L6.97265 2.65626H10.0273L13.6664 1.74649C13.807 1.71243 13.953 1.70725 14.0957 1.73127C14.2383 1.75529 14.3746 1.80801 14.4963 1.88623C14.618 1.96446 14.7225 2.06656 14.8036 2.18636C14.8847 2.30616 14.9406 2.44117 14.968 2.58321L16.057 8.39376C16.1047 8.62828 16.0707 8.87204 15.9608 9.08462C15.8509 9.2972 15.6716 9.46582 15.4527 9.56251V9.56251ZM13.2812 8.10157L9.83476 3.71876H7.16523L3.71874 8.10157V12.2188C3.72049 12.6409 3.88896 13.0453 4.18747 13.3438C4.48598 13.6423 4.89034 13.8108 5.31249 13.8125H7.96874V12.9691L7.05898 12.066C6.97426 11.9628 6.93097 11.8318 6.93752 11.6984C6.94407 11.565 6.99999 11.4389 7.09442 11.3444C7.18884 11.25 7.315 11.1941 7.44838 11.1875C7.58175 11.181 7.71279 11.2243 7.81601 11.309L8.49999 11.9996L9.18398 11.309C9.2872 11.2243 9.41823 11.181 9.55161 11.1875C9.68498 11.1941 9.81115 11.25 9.90557 11.3444C9.99999 11.4389 10.0559 11.565 10.0625 11.6984C10.069 11.8318 10.0257 11.9628 9.94101 12.066L9.03124 12.9691V13.8125H11.6875C12.1096 13.8108 12.514 13.6423 12.8125 13.3438C13.111 13.0453 13.2795 12.6409 13.2812 12.2188V8.10157Z" fill="#1746A2"/>
</svg>
