<svg width="14" height="13" viewBox="0 0 14 13" fill="none" xmlns="http://www.w3.org/2000/svg">
<path d="M5.1852 6.90503C5.1852 7.10594 5.12437 7.30234 5.01042 7.46939C4.89647 7.63645 4.73451 7.76665 4.54502 7.84353C4.35553 7.92042 4.14701 7.94054 3.94585 7.90134C3.74469 7.86214 3.55991 7.76539 3.41487 7.62333C3.26984 7.48126 3.17107 7.30026 3.13106 7.10321C3.09105 6.90616 3.11158 6.70191 3.19007 6.51629C3.26856 6.33067 3.40148 6.17202 3.57202 6.0604C3.74256 5.94878 3.94306 5.8892 4.14816 5.8892C4.4232 5.8892 4.68698 5.99623 4.88146 6.18673C5.07594 6.37724 5.1852 6.63562 5.1852 6.90503ZM9.85184 5.8892C9.64673 5.8892 9.44623 5.94878 9.27569 6.0604C9.10515 6.17202 8.97223 6.33067 8.89374 6.51629C8.81525 6.70191 8.79472 6.90616 8.83473 7.10321C8.87474 7.30026 8.97351 7.48126 9.11854 7.62333C9.26358 7.76539 9.44836 7.86214 9.64952 7.90134C9.85069 7.94054 10.0592 7.92042 10.2487 7.84353C10.4382 7.76665 10.6001 7.63645 10.7141 7.46939C10.828 7.30234 10.8889 7.10594 10.8889 6.90503C10.8889 6.63562 10.7796 6.37724 10.5851 6.18673C10.3906 5.99623 10.1269 5.8892 9.85184 5.8892ZM14 1.27353V6.65107C14 10.1493 10.8629 13 7 13C3.13706 13 4.118e-05 10.1493 4.118e-05 6.65107V1.27353C-0.00201194 1.0218 0.0727499 0.775212 0.214738 0.565386C0.356726 0.355561 0.559466 0.192067 0.796956 0.0958753C1.03445 -0.000316409 1.29586 -0.0248207 1.54766 0.0255052C1.79946 0.0758312 2.03018 0.198693 2.21021 0.378332L3.18243 1.33067C3.90164 0.909975 4.68837 0.611592 5.50927 0.44817C5.54757 0.438751 5.58658 0.432381 5.62593 0.429124C6.53383 0.25988 7.46617 0.25988 8.37407 0.429124C8.41342 0.432381 8.45243 0.438751 8.49073 0.44817C9.31163 0.611592 10.0984 0.909975 10.8176 1.33067L11.7898 0.378332C11.9698 0.198693 12.2005 0.0758312 12.4523 0.0255052C12.7041 -0.0248207 12.9656 -0.000316409 13.203 0.0958753C13.4405 0.192067 13.6433 0.355561 13.7853 0.565386C13.9273 0.775212 14.002 1.0218 14 1.27353ZM12.4444 1.88938L11.4657 2.84806C11.3332 2.97785 11.1572 3.05638 10.9702 3.06922C10.7833 3.08205 10.5979 3.02831 10.4481 2.9179C10.027 2.61315 9.5645 2.36741 9.07406 2.18778V3.60359C9.07406 3.80565 8.99212 3.99943 8.84626 4.14231C8.7004 4.28519 8.50257 4.36546 8.29629 4.36546C8.09001 4.36546 7.89218 4.28519 7.74632 4.14231C7.60046 3.99943 7.51852 3.80565 7.51852 3.60359V1.85128C7.1737 1.81742 6.8263 1.81742 6.48148 1.85128V3.60359C6.48148 3.80565 6.39954 3.99943 6.25368 4.14231C6.10782 4.28519 5.90999 4.36546 5.70371 4.36546C5.49743 4.36546 5.2996 4.28519 5.15374 4.14231C5.00788 3.99943 4.92594 3.80565 4.92594 3.60359V2.18778C4.4355 2.36741 3.97302 2.61315 3.55187 2.9179C3.40213 3.02831 3.21672 3.08205 3.02976 3.06922C2.84279 3.05638 2.66685 2.97785 2.53429 2.84806L1.55559 1.88938V6.65107C1.55559 9.07636 3.58428 11.089 6.22223 11.4255V10.5239L5.41205 9.7303C5.26593 9.58718 5.18385 9.39305 5.18385 9.19064C5.18385 8.98823 5.26593 8.79411 5.41205 8.65098C5.55816 8.50786 5.75633 8.42745 5.96297 8.42745C6.16961 8.42745 6.36778 8.50786 6.51389 8.65098L7 9.12715L7.48611 8.65098C7.63222 8.50786 7.83039 8.42745 8.03703 8.42745C8.24367 8.42745 8.44184 8.50786 8.58795 8.65098C8.73407 8.79411 8.81615 8.98823 8.81615 9.19064C8.81615 9.39305 8.73407 9.58718 8.58795 9.7303L7.77777 10.5239V11.4255C10.4157 11.089 12.4444 9.07636 12.4444 6.65107V1.88938Z" fill="#1746A2"/>
</svg>
