<svg width="96" height="53" viewBox="0 0 96 53" fill="none" xmlns="http://www.w3.org/2000/svg">
<path d="M95.7554 33.453C95.6039 32.8193 95.3144 32.2668 94.8842 31.7956C94.5406 31.2648 94.086 30.8477 93.5178 30.539C92.3869 29.9404 91.0178 29.6425 89.7651 30.0488C88.5611 30.4388 87.5005 31.17 86.8538 32.2885C86.356 33.1524 85.8068 33.9838 85.2169 34.7881C84.0237 36.256 82.6844 37.5939 81.218 38.7855C79.7542 39.8606 78.185 40.7841 76.5318 41.5343C75.0004 42.1328 73.4149 42.577 71.7942 42.8478C69.9625 43.0401 68.1172 43.0238 66.2882 42.8261C64.4268 42.5309 62.5707 42.0678 60.8066 41.3989C59.976 41.0062 59.1994 40.5296 58.4608 39.9771C56.7184 38.6013 54.9976 37.166 53.3958 35.6223L60.2032 26.2573L65.5875 18.8503C67.3894 16.3696 68.12 13.3337 67.6438 10.3032C67.1649 7.2727 65.5361 4.60782 63.0577 2.80415C61.0826 1.36609 58.7503 0.607788 56.3125 0.607788C53.0712 0.607788 49.9786 1.9971 47.8195 4.3695C45.6739 2.17043 42.7085 0.892151 39.5943 0.892151C37.1755 0.892151 34.8568 1.64233 32.8843 3.06414C27.7544 6.77168 26.591 13.9647 30.295 19.1022L35.4195 26.2085C35.4195 26.2085 35.4195 26.2139 35.4222 26.2139L42.3298 35.7983C40.7821 37.2743 39.1344 38.6528 37.4596 39.9717C36.7155 40.5269 35.9363 41.0062 35.1003 41.4016C33.3335 42.0705 31.4801 42.5363 29.6159 42.8315C27.8004 43.0292 25.9714 43.0509 24.1586 42.8613C22.5217 42.5905 20.92 42.1437 19.3751 41.5424C17.7219 40.7923 16.1526 39.8688 14.6862 38.7936C13.2197 37.602 11.8831 36.2668 10.6926 34.8017C10.1028 33.9974 9.55087 33.1632 9.05303 32.2966C8.44426 31.2377 7.31601 30.3792 6.14176 30.0569C5.49511 29.8538 4.84575 29.824 4.1991 29.9702C3.54975 30 2.94639 30.1923 2.38903 30.5498C1.35006 31.2214 0.432846 32.2208 0.151459 33.4638C-0.140751 34.7475 -0.0271137 36.0583 0.64118 37.2201C1.59898 38.883 2.74888 40.4294 3.97183 41.908C4.95127 43.0942 6.03353 44.1965 7.20237 45.1985C8.64989 46.4416 10.1975 47.6115 11.8371 48.5946C13.4822 49.5804 15.2435 50.3658 17.032 51.0456C18.4633 51.5872 19.9432 51.9961 21.4503 52.2507C23.65 52.6217 25.8686 52.833 28.0981 52.7138C30.3789 52.5919 32.6787 52.2507 34.8919 51.6793C35.7848 51.4491 36.6695 51.1783 37.5381 50.8641C38.7718 50.4172 40.0218 49.9189 41.1501 49.2419C42.3406 48.5242 43.4174 47.6197 44.4916 46.7422C45.2951 46.0868 46.096 45.4287 46.8861 44.7571C47.2432 44.4538 47.5976 44.145 47.9494 43.8363C48.1144 43.9798 48.2768 44.1288 48.4418 44.2696C50.1274 45.7266 51.8536 47.1566 53.6393 48.489C55.4251 49.8214 57.549 50.6474 59.6648 51.3001C61.8645 51.9799 64.1264 52.3617 66.4127 52.6055C68.3012 52.8059 70.2114 52.8086 72.0972 52.5811C74.0426 52.3455 75.9474 52.0313 77.8143 51.422C79.6271 50.8289 81.4128 50.0652 83.0903 49.1552C84.784 48.2371 86.3181 47.1105 87.8279 45.9189C89.1699 44.86 90.4118 43.6738 91.5319 42.382C92.9172 40.7814 94.2024 39.059 95.2603 37.2228C95.8934 36.1233 96.0882 34.6934 95.75 33.4665L95.7554 33.453ZM37.7924 9.86717C38.3254 9.4826 38.9477 9.27949 39.5943 9.27949C40.6036 9.27949 41.5181 9.74801 42.1079 10.5632L44.4402 13.7995C44.4402 13.7995 44.4483 13.8076 44.451 13.813C44.5105 13.8943 44.5754 13.9728 44.6431 14.0514C44.6701 14.0839 44.6945 14.1164 44.7215 14.1461C44.7702 14.2003 44.8216 14.2491 44.8731 14.3005C44.9245 14.352 44.9732 14.4061 45.0273 14.4522C45.057 14.4793 45.0895 14.5036 45.122 14.5307C45.2004 14.5984 45.2789 14.6634 45.3601 14.723C45.3655 14.7257 45.3682 14.7311 45.3736 14.7338C45.398 14.7501 45.4223 14.7663 45.4467 14.7826C45.5332 14.8422 45.6171 14.899 45.7064 14.9532C45.7497 14.9803 45.7957 15.0019 45.8417 15.0263C45.9147 15.0669 45.9878 15.1076 46.0635 15.1428C46.1258 15.1726 46.188 15.1969 46.2502 15.2213C46.3098 15.2457 46.372 15.2728 46.4342 15.2944C46.5073 15.3215 46.583 15.3432 46.6561 15.3648C46.7102 15.3811 46.7643 15.3973 46.8184 15.4109C46.8969 15.4298 46.9726 15.4461 47.0511 15.4596C47.1052 15.4705 47.162 15.4813 47.2161 15.4894C47.2892 15.5003 47.365 15.5084 47.438 15.5138C47.5002 15.5192 47.5625 15.5273 47.6247 15.53C47.6896 15.5328 47.7546 15.5328 47.8222 15.5328C47.8953 15.5328 47.9656 15.5328 48.0387 15.53C48.0955 15.5273 48.1523 15.5219 48.2064 15.5165C48.2876 15.5084 48.366 15.503 48.4472 15.4894C48.4959 15.4813 48.5446 15.4732 48.596 15.4623C48.6799 15.4461 48.7638 15.4298 48.8476 15.4109C48.8963 15.4 48.9451 15.3838 48.9938 15.3703C49.0749 15.3486 49.1534 15.3242 49.2318 15.2971C49.2887 15.2782 49.3428 15.2538 49.3996 15.2321C49.4672 15.2051 49.5349 15.178 49.6025 15.1482C49.6729 15.1157 49.7432 15.0778 49.8136 15.0399C49.8623 15.0128 49.9137 14.9884 49.9624 14.9613C50.049 14.9099 50.1328 14.853 50.2167 14.7961C50.2438 14.7772 50.2708 14.7636 50.2979 14.7447C50.3033 14.742 50.306 14.7365 50.3114 14.7338C50.3926 14.6742 50.4683 14.6093 50.5468 14.5443C50.5793 14.5172 50.6144 14.4901 50.6469 14.463C50.701 14.4143 50.7497 14.3628 50.8011 14.3113C50.8525 14.2599 50.9066 14.2111 50.9553 14.157C50.9824 14.1272 51.0095 14.092 51.0365 14.0595C51.1014 13.9809 51.1664 13.9051 51.2259 13.8239C51.2286 13.8185 51.234 13.8157 51.2367 13.8103L53.8125 10.2653C54.3996 9.45552 55.3141 8.99242 56.3152 8.99242C56.9673 8.99242 57.595 9.19824 58.128 9.58552C58.7963 10.0703 59.2346 10.788 59.3618 11.6031C59.4917 12.4183 59.2941 13.2362 58.8098 13.9024L47.8114 29.0359L37.1024 14.1786C36.1041 12.7947 36.4179 10.8584 37.7951 9.86175L37.7924 9.86717Z" fill="#FFF8EB"/>
</svg>
