<svg width="51" height="51" viewBox="0 0 51 51" fill="none" xmlns="http://www.w3.org/2000/svg">
<path d="M25.5 19.176C24.2492 19.176 23.0265 19.5469 21.9866 20.2418C20.9466 20.9367 20.136 21.9244 19.6574 23.0799C19.1787 24.2355 19.0535 25.507 19.2975 26.7338C19.5415 27.9605 20.1438 29.0873 21.0283 29.9717C21.9127 30.8562 23.0395 31.4585 24.2662 31.7025C25.493 31.9465 26.7645 31.8213 27.9201 31.3426C29.0756 30.864 30.0633 30.0534 30.7582 29.0134C31.4531 27.9734 31.824 26.7508 31.824 25.5C31.824 24.6695 31.6604 23.8472 31.3426 23.0799C31.0248 22.3126 30.559 21.6155 29.9717 21.0283C29.3845 20.441 28.6874 19.9752 27.9201 19.6574C27.1528 19.3396 26.3305 19.176 25.5 19.176ZM50.8215 12.9285C50.8081 10.9593 50.4455 9.00806 49.7505 7.1655C49.2387 5.81721 48.4467 4.59279 47.427 3.57302C46.4072 2.55326 45.1828 1.76133 43.8345 1.2495C41.9919 0.554533 40.0407 0.191915 38.0715 0.1785C34.782 -1.70991e-07 33.813 0 25.5 0C17.187 0 16.218 -1.70991e-07 12.9285 0.1785C10.9593 0.191915 9.00806 0.554533 7.1655 1.2495C5.81721 1.76133 4.59279 2.55326 3.57302 3.57302C2.55326 4.59279 1.76133 5.81721 1.2495 7.1655C0.554533 9.00806 0.191915 10.9593 0.1785 12.9285C-1.70991e-07 16.218 0 17.187 0 25.5C0 33.813 -1.70991e-07 34.782 0.1785 38.0715C0.205948 40.0476 0.568075 42.0049 1.2495 43.86C1.75906 45.2021 2.55033 46.4195 3.57 47.43C4.58539 48.4559 5.81244 49.2478 7.1655 49.7505C9.00806 50.4455 10.9593 50.8081 12.9285 50.8215C16.218 51 17.187 51 25.5 51C33.813 51 34.782 51 38.0715 50.8215C40.0407 50.8081 41.9919 50.4455 43.8345 49.7505C45.1876 49.2478 46.4146 48.4559 47.43 47.43C48.4497 46.4195 49.2409 45.2021 49.7505 43.86C50.4448 42.0084 50.8073 40.0489 50.8215 38.0715C51 34.782 51 33.813 51 25.5C51 17.187 51 16.218 50.8215 12.9285ZM44.3445 33.3285C44.2627 34.9021 43.9268 36.4521 43.35 37.9185C42.855 39.1417 42.119 40.2529 41.1859 41.1859C40.2529 42.119 39.1417 42.855 37.9185 43.35C36.4383 43.8947 34.8796 44.1961 33.303 44.2425H17.697C16.1204 44.1961 14.5617 43.8947 13.0815 43.35C11.817 42.8801 10.675 42.1304 9.741 41.157C8.81705 40.2422 8.1035 39.1371 7.65 37.9185C7.10317 36.4398 6.81005 34.8793 6.783 33.303V17.697C6.81005 16.1207 7.10317 14.5602 7.65 13.0815C8.11992 11.817 8.8696 10.675 9.843 9.741C10.7618 8.82204 11.8658 8.10924 13.0815 7.65C14.5617 7.10533 16.1204 6.80393 17.697 6.7575H33.303C34.8796 6.80393 36.4383 7.10533 37.9185 7.65C39.183 8.11992 40.325 8.8696 41.259 9.843C42.183 10.7578 42.8965 11.8629 43.35 13.0815C43.8947 14.5617 44.1961 16.1204 44.2425 17.697V25.5C44.2425 30.753 44.421 31.2885 44.3445 33.303V33.3285ZM40.2645 14.3565C39.9609 13.5328 39.4822 12.7848 38.8615 12.164C38.2407 11.5433 37.4927 11.0646 36.669 10.761C35.538 10.369 34.3468 10.1791 33.15 10.2H17.85C16.6471 10.2118 15.4557 10.4362 14.331 10.863C13.5199 11.1528 12.7798 11.612 12.1599 12.2099C11.54 12.8079 11.0544 13.5309 10.7355 14.331C10.3652 15.4667 10.1843 16.6556 10.2 17.85V33.15C10.2253 34.3516 10.4493 35.5406 10.863 36.669C11.1666 37.4927 11.6453 38.2407 12.266 38.8615C12.8868 39.4822 13.6348 39.9609 14.4585 40.2645C15.5465 40.6646 16.6914 40.8884 17.85 40.9275H33.15C34.3529 40.9157 35.5443 40.6913 36.669 40.2645C37.4927 39.9609 38.2407 39.4822 38.8615 38.8615C39.4822 38.2407 39.9609 37.4927 40.2645 36.669C40.6913 35.5443 40.9157 34.3529 40.9275 33.15V17.85C40.9282 16.6459 40.7034 15.4523 40.2645 14.331V14.3565ZM25.5 35.241C24.222 35.241 22.9565 34.9889 21.7761 34.499C20.5957 34.0092 19.5236 33.2913 18.6211 32.3864C17.7186 31.4815 17.0035 30.4075 16.5167 29.2258C16.03 28.0441 15.7811 26.778 15.7845 25.5C15.7845 23.5723 16.3565 21.688 17.4279 20.0855C18.4994 18.4831 20.0223 17.2346 21.8037 16.4981C23.5851 15.7616 25.545 15.5701 27.4353 15.9481C29.3255 16.326 31.0612 17.2563 32.4224 18.6211C33.7837 19.986 34.7095 21.7241 35.0824 23.6153C35.4554 25.5065 35.2589 27.4659 34.5177 29.2454C33.7765 31.0249 32.524 32.5445 30.9187 33.6118C29.3135 34.679 27.4277 35.246 25.5 35.241ZM35.7 17.6715C35.1363 17.6118 34.6146 17.3457 34.2355 16.9243C33.8564 16.5029 33.6466 15.9561 33.6466 15.3892C33.6466 14.8224 33.8564 14.2756 34.2355 13.8542C34.6146 13.4328 35.1363 13.1667 35.7 13.107C36.2637 13.1667 36.7854 13.4328 37.1645 13.8542C37.5436 14.2756 37.7534 14.8224 37.7534 15.3892C37.7534 15.9561 37.5436 16.5029 37.1645 16.9243C36.7854 17.3457 36.2637 17.6118 35.7 17.6715Z" fill="#1746A2"/>
</svg>
