<svg width="17" height="17" viewBox="0 0 17 17" fill="none" xmlns="http://www.w3.org/2000/svg">
<path d="M9.45357 1C9.45357 0.447715 9.00586 0 8.45357 0C7.90129 0 7.45357 0.447715 7.45357 1H9.45357ZM8.45357 11.3527L7.76859 12.0812C8.15353 12.4432 8.75361 12.4432 9.13856 12.0812L8.45357 11.3527ZM4.99749 6.73069C4.59512 6.35238 3.96225 6.37189 3.58395 6.77426C3.20564 7.17663 3.22514 7.80949 3.62751 8.1878L4.99749 6.73069ZM13.2796 8.1878C13.682 7.80949 13.7015 7.17663 13.3232 6.77426C12.9449 6.37189 12.312 6.35238 11.9097 6.73069L13.2796 8.1878ZM2 10.1104C2 9.55807 1.55228 9.11035 1 9.11035C0.447715 9.11035 0 9.55807 0 10.1104H2ZM16.9079 10.1104C16.9079 9.55807 16.4601 9.11035 15.9079 9.11035C15.3556 9.11035 14.9079 9.55807 14.9079 10.1104H16.9079ZM7.45357 1V11.3527H9.45357V1H7.45357ZM9.13856 10.6241L4.99749 6.73069L3.62751 8.1878L7.76859 12.0812L9.13856 10.6241ZM9.13856 12.0812L13.2796 8.1878L11.9097 6.73069L7.76859 10.6241L9.13856 12.0812ZM0 10.1104V12.595H2V10.1104H0ZM0 12.595C0 13.3477 -0.00212656 14.0127 0.0695945 14.5458C0.145211 15.1079 0.318937 15.6703 0.778227 16.1296L2.19244 14.7154C2.1664 14.6894 2.09746 14.619 2.05174 14.2792C2.00213 13.9104 2 13.4043 2 12.595H0ZM0.778227 16.1296C1.23752 16.5889 1.79993 16.7626 2.36201 16.8383C2.89515 16.91 3.56015 16.9079 4.31286 16.9079V14.9079C3.50356 14.9079 2.99746 14.9057 2.62867 14.8561C2.28883 14.8104 2.21848 14.7415 2.19244 14.7154L0.778227 16.1296ZM4.31286 16.9079H12.595V14.9079H4.31286V16.9079ZM12.595 16.9079C13.3477 16.9079 14.0127 16.91 14.5458 16.8383C15.1079 16.7626 15.6703 16.5889 16.1296 16.1296L14.7154 14.7154C14.6894 14.7415 14.619 14.8104 14.2792 14.8561C13.9104 14.9057 13.4043 14.9079 12.595 14.9079V16.9079ZM16.1296 16.1296C16.5889 15.6703 16.7626 15.1079 16.8383 14.5458C16.91 14.0127 16.9079 13.3477 16.9079 12.595H14.9079C14.9079 13.4043 14.9057 13.9104 14.8561 14.2792C14.8104 14.619 14.7415 14.6894 14.7154 14.7154L16.1296 16.1296ZM16.9079 12.595V10.1104H14.9079V12.595H16.9079Z" fill="#0A2864" fill-opacity="0.26"/>
</svg>
