<svg width="28" height="25" viewBox="0 0 28 25" fill="none" xmlns="http://www.w3.org/2000/svg">
<path d="M8.91083 0.0208754C10.5561 -0.215035 12.299 1.57511 12.8009 4.04524C13.3029 6.50148 12.3966 8.69407 10.7513 8.94385C9.11997 9.19364 7.36316 7.40349 6.84727 4.93337C6.33138 2.47712 7.26556 0.28454 8.91083 0.0208754ZM18.88 0.0208754C20.5392 0.28454 21.4595 2.47712 20.9715 4.93337C20.4416 7.40349 18.6988 9.19364 17.0535 8.94385C15.3943 8.69407 14.488 6.50148 15.0039 4.04524C15.5058 1.57511 17.2487 -0.215035 18.88 0.0208754ZM1.45135 6.40434C3.04085 5.72437 5.202 6.95943 6.33138 9.11038C7.39105 11.303 7.02853 13.6066 5.45298 14.2865C3.87742 14.9665 1.73021 13.7453 0.628718 11.5666C-0.472774 9.38792 -0.0823721 7.07044 1.45135 6.40434ZM26.5486 6.40434C28.0824 7.07044 28.4728 9.38792 27.3713 11.5666C26.2698 13.7453 24.1226 14.9665 22.547 14.2865C20.9715 13.6066 20.609 11.303 21.6686 9.11038C22.798 6.95943 24.9592 5.72437 26.5486 6.40434ZM24.2202 21.3639C24.2759 22.6683 23.2721 24.1115 22.073 24.6527C19.5772 25.7907 16.6213 23.4316 13.8466 23.4316C11.072 23.4316 8.08819 25.8878 5.63423 24.6527C4.23994 23.9728 3.27788 22.1687 3.45914 20.67C3.71011 18.6023 6.2059 17.4921 7.68385 15.9795C9.6498 14.0229 11.0441 10.3454 13.8466 10.3454C16.6352 10.3454 18.1132 13.9674 19.9955 15.9795C21.5431 17.6726 24.1226 19.1019 24.2202 21.3639Z" fill="#1746A2"/>
</svg>
