<svg width="18" height="18" viewBox="0 0 18 18" fill="none" xmlns="http://www.w3.org/2000/svg">
<path d="M17.0567 0.444402L17.5503 0.932748C18.2306 1.6065 18.1277 2.80088 17.3186 3.60044L7.13811 13.6711L3.83974 14.8647C3.42556 15.0153 3.02226 14.82 2.94026 14.4301C2.91254 14.2887 2.92559 14.1424 2.97791 14.008L4.2079 10.717L14.3599 0.673676C15.169 -0.125885 16.3764 -0.228521 17.0567 0.44523V0.444402ZM6.69381 1.44592C6.80369 1.44592 6.91249 1.46733 7.01401 1.50893C7.11553 1.55053 7.20777 1.61149 7.28546 1.68835C7.36316 1.76521 7.42479 1.85646 7.46684 1.95688C7.50889 2.0573 7.53054 2.16493 7.53054 2.27363C7.53054 2.38232 7.50889 2.48995 7.46684 2.59038C7.42479 2.6908 7.36316 2.78204 7.28546 2.8589C7.20777 2.93576 7.11553 2.99673 7.01401 3.03833C6.91249 3.07992 6.80369 3.10133 6.69381 3.10133H3.3469C2.90308 3.10133 2.47743 3.27574 2.1636 3.58619C1.84976 3.89664 1.67345 4.3177 1.67345 4.75674V14.6892C1.67345 15.1282 1.84976 15.5493 2.1636 15.8597C2.47743 16.1702 2.90308 16.3446 3.3469 16.3446H13.3876C13.8314 16.3446 14.2571 16.1702 14.5709 15.8597C14.8848 15.5493 15.0611 15.1282 15.0611 14.6892V11.3784C15.0611 11.1588 15.1492 10.9483 15.3061 10.7931C15.4631 10.6379 15.6759 10.5507 15.8978 10.5507C16.1197 10.5507 16.3325 10.6379 16.4895 10.7931C16.6464 10.9483 16.7345 11.1588 16.7345 11.3784V14.6892C16.7345 15.5673 16.3819 16.4094 15.7542 17.0303C15.1266 17.6512 14.2753 18 13.3876 18H3.3469C2.45925 18 1.60795 17.6512 0.980286 17.0303C0.352619 16.4094 0 15.5673 0 14.6892V4.75674C0 3.87866 0.352619 3.03654 0.980286 2.41564C1.60795 1.79474 2.45925 1.44592 3.3469 1.44592H6.69381Z" fill="#E3EFFF"/>
</svg>
