<svg width="30" height="24" viewBox="0 0 30 24" fill="none" xmlns="http://www.w3.org/2000/svg">
<path d="M15 4.11401e-06C9.325 4.11401e-06 4.175 2.24842 0.3625 5.89895C0.1375 6.12632 0 6.44211 0 6.79579C0 7.14948 0.1375 7.46527 0.3625 7.69263L3.4625 10.8253C3.69664 11.0592 4.01195 11.1915 4.34121 11.1938C4.67046 11.1962 4.9876 11.0685 5.225 10.8379C6.2125 9.90316 7.3375 9.12 8.55 8.50105C8.9625 8.29895 9.25 7.86948 9.25 7.36421V3.44842C11.0625 2.84211 12.9875 2.52632 15 2.52632C16.9875 2.52632 18.925 2.84211 20.7375 3.43579V7.35158C20.7375 7.84421 21.025 8.28632 21.4375 8.48842C22.6625 9.10737 23.75 9.90316 24.775 10.8253C25 11.0526 25.3125 11.1789 25.625 11.1789C26 11.1789 26.3125 11.04 26.5375 10.8126L29.6375 7.68C29.8625 7.45263 30 7.13684 30 6.78316C30 6.42948 29.85 6.12632 29.625 5.89895C25.6799 2.10867 20.4435 -0.00340228 15 4.11401e-06ZM11.25 5.05263V8.84211C11.25 8.84211 3.75 15.1579 3.75 18.9474V24H26.25V18.9474C26.25 15.1579 18.75 8.84211 18.75 8.84211V5.05263H16.25V7.57895H13.75V5.05263H11.25ZM15 11.3684C16.3261 11.3684 17.5979 11.9008 18.5355 12.8483C19.4732 13.7959 20 15.081 20 16.4211C20 17.7611 19.4732 19.0462 18.5355 19.9938C17.5979 20.9414 16.3261 21.4737 15 21.4737C13.6739 21.4737 12.4021 20.9414 11.4645 19.9938C10.5268 19.0462 10 17.7611 10 16.4211C10 15.081 10.5268 13.7959 11.4645 12.8483C12.4021 11.9008 13.6739 11.3684 15 11.3684ZM15 13.2632C14.1712 13.2632 13.3763 13.5959 12.7903 14.1881C12.2042 14.7803 11.875 15.5835 11.875 16.4211C11.875 17.2586 12.2042 18.0618 12.7903 18.654C13.3763 19.2462 14.1712 19.5789 15 19.5789C15.8288 19.5789 16.6237 19.2462 17.2097 18.654C17.7958 18.0618 18.125 17.2586 18.125 16.4211C18.125 15.5835 17.7958 14.7803 17.2097 14.1881C16.6237 13.5959 15.8288 13.2632 15 13.2632Z" fill="#1746A2"/>
</svg>
