<svg width="17" height="18" viewBox="0 0 17 18" fill="none" xmlns="http://www.w3.org/2000/svg">
<path d="M9.45357 1.63367C9.45357 1.08138 9.00586 0.633667 8.45357 0.633667C7.90129 0.633667 7.45357 1.08138 7.45357 1.63367H9.45357ZM8.45357 11.9863L7.76859 12.7149C8.15353 13.0768 8.75361 13.0768 9.13856 12.7149L8.45357 11.9863ZM4.99749 7.36436C4.59512 6.98605 3.96225 7.00555 3.58395 7.40792C3.20564 7.81029 3.22514 8.44316 3.62751 8.82147L4.99749 7.36436ZM13.2796 8.82147C13.682 8.44316 13.7015 7.81029 13.3232 7.40792C12.9449 7.00555 12.312 6.98605 11.9097 7.36436L13.2796 8.82147ZM2 10.744C2 10.1917 1.55228 9.74402 1 9.74402C0.447715 9.74402 0 10.1917 0 10.744H2ZM16.9079 10.744C16.9079 10.1917 16.4601 9.74402 15.9079 9.74402C15.3556 9.74402 14.9079 10.1917 14.9079 10.744H16.9079ZM7.45357 1.63367V11.9863H9.45357V1.63367H7.45357ZM9.13856 11.2578L4.99749 7.36436L3.62751 8.82147L7.76859 12.7149L9.13856 11.2578ZM9.13856 12.7149L13.2796 8.82147L11.9097 7.36436L7.76859 11.2578L9.13856 12.7149ZM0 10.744V13.2287H2V10.744H0ZM0 13.2287C0 13.9814 -0.00212656 14.6464 0.0695945 15.1795C0.145211 15.7416 0.318937 16.304 0.778227 16.7633L2.19244 15.3491C2.1664 15.323 2.09746 15.2527 2.05174 14.9129C2.00213 14.5441 2 14.038 2 13.2287H0ZM0.778227 16.7633C1.23752 17.2226 1.79993 17.3963 2.36201 17.4719C2.89515 17.5436 3.56015 17.5415 4.31286 17.5415V15.5415C3.50356 15.5415 2.99746 15.5394 2.62867 15.4898C2.28883 15.4441 2.21848 15.3751 2.19244 15.3491L0.778227 16.7633ZM4.31286 17.5415H12.595V15.5415H4.31286V17.5415ZM12.595 17.5415C13.3477 17.5415 14.0127 17.5436 14.5458 17.4719C15.1079 17.3963 15.6703 17.2226 16.1296 16.7633L14.7154 15.3491C14.6894 15.3751 14.619 15.4441 14.2792 15.4898C13.9104 15.5394 13.4043 15.5415 12.595 15.5415V17.5415ZM16.1296 16.7633C16.5889 16.304 16.7626 15.7416 16.8383 15.1795C16.91 14.6464 16.9079 13.9814 16.9079 13.2287H14.9079C14.9079 14.038 14.9057 14.5441 14.8561 14.9129C14.8104 15.2527 14.7415 15.323 14.7154 15.3491L16.1296 16.7633ZM16.9079 13.2287V10.744H14.9079V13.2287H16.9079Z" fill="#0A2864" fill-opacity="0.26"/>
</svg>
