<svg width="54" height="29" viewBox="0 0 54 29" fill="none" xmlns="http://www.w3.org/2000/svg">
<path d="M53.082 18.2077C52.998 17.8564 52.8375 17.5502 52.5991 17.289C52.4086 16.9947 52.1566 16.7635 51.8416 16.5924C51.2147 16.2606 50.4557 16.0954 49.7613 16.3206C49.0939 16.5368 48.5059 16.9422 48.1474 17.5622C47.8715 18.0411 47.567 18.502 47.24 18.9479C46.5786 19.7616 45.8361 20.5032 45.0232 21.1638C44.2118 21.7598 43.3418 22.2718 42.4254 22.6876C41.5765 23.0194 40.6976 23.2656 39.7991 23.4158C38.7837 23.5223 37.7608 23.5133 36.7469 23.4037C35.715 23.2401 34.6861 22.9834 33.7081 22.6126C33.2477 22.3949 32.8172 22.1306 32.4078 21.8244C31.4418 21.0617 30.4879 20.266 29.6 19.4103L33.3737 14.2188L36.3584 10.1127C37.3573 8.73756 37.7623 7.0546 37.4983 5.37465C37.2329 3.6947 36.3299 2.21742 34.956 1.21755C33.8611 0.420364 32.5682 0 31.2169 0C29.42 0 27.7056 0.770166 26.5087 2.0853C25.3193 0.866249 23.6755 0.157636 21.9491 0.157636C20.6082 0.157636 19.3229 0.573496 18.2294 1.36168C15.3857 3.41696 14.7407 7.4044 16.7941 10.2524L19.6348 14.1918C19.6348 14.1918 19.6348 14.1948 19.6363 14.1948L23.4655 19.5079C22.6076 20.3261 21.6942 21.0902 20.7657 21.8214C20.3533 22.1291 19.9213 22.3949 19.4578 22.6141C18.4784 22.9849 17.451 23.2431 16.4176 23.4067C15.4112 23.5163 14.3973 23.5284 13.3923 23.4233C12.4849 23.2731 11.597 23.0254 10.7406 22.6921C9.82415 22.2763 8.95422 21.7643 8.14129 21.1683C7.32835 20.5077 6.58742 19.7676 5.92747 18.9554C5.6005 18.5095 5.29453 18.0471 5.01855 17.5667C4.68108 16.9797 4.05563 16.5038 3.40468 16.3251C3.04621 16.2125 2.68624 16.196 2.32777 16.2771C1.9678 16.2936 1.63333 16.4002 1.32436 16.5984C0.748406 16.9707 0.239948 17.5247 0.0839613 18.2138C-0.0780252 18.9254 -0.0150305 19.652 0.355439 20.2961C0.886394 21.2179 1.52384 22.0751 2.20178 22.8948C2.74474 23.5524 3.34469 24.1634 3.99263 24.7189C4.79507 25.408 5.653 26.0565 6.56192 26.6015C7.47384 27.148 8.45026 27.5834 9.44168 27.9602C10.2351 28.2604 11.0555 28.4871 11.891 28.6283C13.1104 28.8339 14.3403 28.951 15.5762 28.885C16.8406 28.8174 18.1155 28.6283 19.3423 28.3115C19.8373 28.1839 20.3278 28.0337 20.8092 27.8596C21.4932 27.6119 22.1861 27.3356 22.8116 26.9603C23.4715 26.5625 24.0685 26.061 24.6639 25.5746C25.1094 25.2113 25.5533 24.8465 25.9913 24.4742C26.1893 24.306 26.3858 24.1349 26.5807 23.9637C26.6722 24.0433 26.7622 24.1259 26.8537 24.2039C27.7881 25.0116 28.7451 25.8043 29.735 26.543C30.7249 27.2816 31.9023 27.7395 33.0752 28.1013C34.2946 28.4781 35.5485 28.6898 36.8159 28.8249C37.8628 28.936 38.9217 28.9375 39.9671 28.8114C41.0455 28.6808 42.1014 28.5067 43.1364 28.1689C44.1413 27.8401 45.1312 27.4167 46.0611 26.9123C47 26.4033 47.8505 25.7788 48.6874 25.1182C49.4313 24.5312 50.1198 23.8736 50.7407 23.1575C51.5087 22.2703 52.2211 21.3154 52.8075 20.2976C53.1585 19.688 53.2665 18.8953 53.079 18.2153L53.082 18.2077ZM20.9502 5.13294C21.2457 4.91976 21.5907 4.80716 21.9491 4.80716C22.5086 4.80716 23.0155 5.06688 23.3425 5.51877L24.6354 7.31283C24.6354 7.31283 24.6399 7.31733 24.6414 7.32033C24.6744 7.36537 24.7104 7.40891 24.7479 7.45245C24.7629 7.47046 24.7764 7.48848 24.7914 7.50499C24.8184 7.53502 24.8469 7.56204 24.8754 7.59057C24.9039 7.61909 24.9309 7.64912 24.9609 7.67464C24.9774 7.68965 24.9954 7.70316 25.0134 7.71818C25.0569 7.75571 25.1004 7.79174 25.1454 7.82477C25.1484 7.82627 25.1499 7.82927 25.1529 7.83077C25.1664 7.83978 25.1799 7.84879 25.1934 7.8578C25.2414 7.89083 25.2879 7.92235 25.3373 7.95238C25.3613 7.96739 25.3868 7.9794 25.4123 7.99291C25.4528 8.01543 25.4933 8.03795 25.5353 8.05747C25.5698 8.07398 25.6043 8.0875 25.6388 8.10101C25.6718 8.11452 25.7063 8.12953 25.7408 8.14154C25.7813 8.15655 25.8233 8.16857 25.8638 8.18058C25.8938 8.18958 25.9238 8.19859 25.9538 8.2061C25.9973 8.21661 26.0393 8.22561 26.0828 8.23312C26.1128 8.23913 26.1443 8.24513 26.1743 8.24964C26.2148 8.25564 26.2568 8.26014 26.2973 8.26315C26.3318 8.26615 26.3663 8.27065 26.4008 8.27216C26.4368 8.27366 26.4728 8.27366 26.5103 8.27366C26.5507 8.27366 26.5897 8.27366 26.6302 8.27216C26.6617 8.27065 26.6932 8.26765 26.7232 8.26465C26.7682 8.26015 26.8117 8.25714 26.8567 8.24964C26.8837 8.24513 26.9107 8.24063 26.9392 8.23462C26.9857 8.22562 27.0322 8.21661 27.0787 8.2061C27.1057 8.20009 27.1327 8.19109 27.1597 8.18358C27.2047 8.17157 27.2482 8.15806 27.2917 8.14304C27.3232 8.13253 27.3532 8.11902 27.3847 8.10701C27.4222 8.092 27.4597 8.07699 27.4972 8.06047C27.5362 8.04246 27.5752 8.02144 27.6142 8.00042C27.6412 7.98541 27.6697 7.9719 27.6966 7.95688C27.7446 7.92836 27.7911 7.89683 27.8376 7.8653C27.8526 7.85479 27.8676 7.84729 27.8826 7.83678C27.8856 7.83528 27.8871 7.83227 27.8901 7.83077C27.9351 7.79774 27.9771 7.76171 28.0206 7.72568C28.0386 7.71067 28.0581 7.69566 28.0761 7.68064C28.1061 7.65362 28.1331 7.6251 28.1616 7.59657C28.1901 7.56805 28.2201 7.54102 28.2471 7.511C28.2621 7.49448 28.2771 7.47497 28.2921 7.45695C28.3281 7.41341 28.3641 7.37138 28.3971 7.32634C28.3986 7.32333 28.4016 7.32183 28.4031 7.31883L29.831 5.35363C30.1564 4.90474 30.6634 4.64802 31.2184 4.64802C31.5798 4.64802 31.9278 4.76212 32.2233 4.9768C32.5937 5.24554 32.8367 5.64338 32.9072 6.09527C32.9792 6.54716 32.8697 7.00056 32.6012 7.36987L26.5043 15.7591L20.5677 7.52301C20.0143 6.75584 20.1883 5.68242 20.9517 5.12994L20.9502 5.13294Z" fill="#0A2864"/>
</svg>
