<svg width="12" height="17" viewBox="0 0 12 17" fill="none" xmlns="http://www.w3.org/2000/svg">
<path d="M10.2 10.2C9.996 9.996 9.826 9.775 9.6475 9.5625C10.625 8.075 11.9 5.576 11.9 2.55C11.9 0.8925 11.271 0 10.2 0C8.891 0 6.834 1.751 5.95 5.0745C5.066 1.751 3.009 0 1.7 0C0.629 0 0 0.8925 0 2.55C0 5.576 1.275 8.075 2.2525 9.5625C2.074 9.775 1.904 9.996 1.7 10.2C1.4875 10.4125 0 11.3815 0 13.175C0 15.3 1.7 17 3.825 17C5.1 17 5.95 16.575 5.95 16.575C5.95 16.575 6.8 17 8.075 17C10.2 17 11.9 15.3 11.9 13.175C11.9 11.3815 10.4125 10.4125 10.2 10.2ZM10.098 1.7255C10.149 1.87 10.2 2.125 10.2 2.55C10.2 4.964 9.2565 7.004 8.4405 8.313C8.1175 8.075 7.735 7.905 7.2505 7.786C7.4545 3.944 9.3245 1.9805 10.098 1.7255ZM1.7 2.55C1.7 2.125 1.751 1.87 1.802 1.7255C2.5755 1.9805 4.4455 3.944 4.675 7.786C4.165 7.905 3.7825 8.075 3.468 8.313C2.6435 7.004 1.7 4.964 1.7 2.55ZM8.075 15.3C7.225 15.3 6.545 15.0195 6.188 14.824C6.545 14.671 6.8 14.2205 6.8 14.025C6.8 13.787 6.4175 13.6 5.95 13.6C5.4825 13.6 5.1 13.787 5.1 14.025C5.1 14.2205 5.355 14.671 5.712 14.824C5.355 15.0195 4.675 15.3 3.825 15.3C3.26142 15.3 2.72091 15.0761 2.3224 14.6776C1.92388 14.2791 1.7 13.7386 1.7 13.175C1.7 12.58 2.0655 12.121 2.55 11.7045C2.924 11.3985 3.0685 11.2625 3.655 10.54C4.301 9.7325 4.5815 9.35 5.95 9.35C7.3185 9.35 7.599 9.7325 8.245 10.54C8.8315 11.2625 8.976 11.3985 9.35 11.7045C9.8345 12.121 10.2 12.58 10.2 13.175C10.2 13.7386 9.97612 14.2791 9.5776 14.6776C9.17909 15.0761 8.63859 15.3 8.075 15.3ZM7.65 11.9C7.65 12.2485 7.463 12.5375 7.225 12.5375C6.987 12.5375 6.8 12.2485 6.8 11.9C6.8 11.5515 6.987 11.2625 7.225 11.2625C7.463 11.2625 7.65 11.5515 7.65 11.9ZM5.1 11.9C5.1 12.2485 4.913 12.5375 4.675 12.5375C4.437 12.5375 4.25 12.2485 4.25 11.9C4.25 11.5515 4.437 11.2625 4.675 11.2625C4.913 11.2625 5.1 11.5515 5.1 11.9Z" fill="#1746A2"/>
</svg>
