<svg width="35" height="25" viewBox="0 0 35 25" fill="none" xmlns="http://www.w3.org/2000/svg">
<path d="M31.8182 0H3.18182C2.33795 0 1.52864 0.32924 0.931933 0.915291C0.335226 1.50134 0 2.2962 0 3.125V21.875C0 22.7038 0.335226 23.4987 0.931933 24.0847C1.52864 24.6708 2.33795 25 3.18182 25H31.8182C32.6621 25 33.4714 24.6708 34.0681 24.0847C34.6648 23.4987 35 22.7038 35 21.875V3.125C35 2.2962 34.6648 1.50134 34.0681 0.915291C33.4714 0.32924 32.6621 0 31.8182 0ZM3.18182 3.125H15.9091V21.875H3.18182V3.125ZM31.8182 21.875H17.5V3.125H31.823L31.8182 21.875ZM30.2273 14.8438C30.2273 14.4141 29.8693 14.0625 29.4318 14.0625H27.8409C27.4034 14.0625 27.0455 14.4141 27.0455 14.8438V19.5312C27.0455 19.9609 27.4034 20.3125 27.8409 20.3125H29.4318C29.8693 20.3125 30.2273 19.9609 30.2273 19.5312V14.8438ZM25.4545 5.46875C25.4545 5.03906 25.0966 4.6875 24.6591 4.6875H19.8864C19.4489 4.6875 19.0909 5.03906 19.0909 5.46875V13.2812C19.0909 13.7109 19.4489 14.0625 19.8864 14.0625H24.6591C25.0966 14.0625 25.4545 13.7109 25.4545 13.2812V5.46875ZM27.8409 9.375H29.4318C29.8693 9.375 30.2273 9.02344 30.2273 8.59375C30.2273 8.16406 29.8693 7.8125 29.4318 7.8125H27.8409C27.4034 7.8125 27.0455 8.16406 27.0455 8.59375C27.0455 9.02344 27.4034 9.375 27.8409 9.375ZM27.8409 12.5H29.4318C29.8693 12.5 30.2273 12.1484 30.2273 11.7188C30.2273 11.2891 29.8693 10.9375 29.4318 10.9375H27.8409C27.4034 10.9375 27.0455 11.2891 27.0455 11.7188C27.0455 12.1484 27.4034 12.5 27.8409 12.5ZM19.8864 17.1875H24.6591C25.0966 17.1875 25.4545 16.8359 25.4545 16.4062C25.4545 15.9766 25.0966 15.625 24.6591 15.625H19.8864C19.4489 15.625 19.0909 15.9766 19.0909 16.4062C19.0909 16.8359 19.4489 17.1875 19.8864 17.1875ZM24.6591 18.75H19.8864C19.4489 18.75 19.0909 19.1016 19.0909 19.5312C19.0909 19.9609 19.4489 20.3125 19.8864 20.3125H24.6591C25.0966 20.3125 25.4545 19.9609 25.4545 19.5312C25.4545 19.1016 25.0966 18.75 24.6591 18.75ZM27.8409 6.25H29.4318C29.8693 6.25 30.2273 5.89844 30.2273 5.46875C30.2273 5.03906 29.8693 4.6875 29.4318 4.6875H27.8409C27.4034 4.6875 27.0455 5.03906 27.0455 5.46875C27.0455 5.89844 27.4034 6.25 27.8409 6.25ZM14.3182 5.46875C14.3182 5.03906 13.9602 4.6875 13.5227 4.6875H5.56818C5.13068 4.6875 4.77273 5.03906 4.77273 5.46875V10.1562C4.77273 10.5859 5.13068 10.9375 5.56818 10.9375H13.5227C13.9602 10.9375 14.3182 10.5859 14.3182 10.1562V5.46875ZM13.5243 15.625H5.56977C5.13386 15.625 4.77432 15.9766 4.77432 16.4062C4.77432 16.8359 5.13386 17.1875 5.56977 17.1875H13.5243C13.9602 17.1875 14.3182 16.8359 14.3182 16.4062C14.3182 15.9766 13.9602 15.625 13.5243 15.625ZM13.5243 12.5H5.56977C5.13386 12.5 4.77432 12.8516 4.77432 13.2812C4.77432 13.7109 5.13386 14.0625 5.56977 14.0625H13.5243C13.9602 14.0625 14.3182 13.7109 14.3182 13.2812C14.3182 12.8516 13.9602 12.5 13.5243 12.5ZM13.5243 18.75H5.56977C5.13386 18.75 4.77432 19.1016 4.77432 19.5312C4.77432 19.9609 5.13386 20.3125 5.56977 20.3125H13.5243C13.9602 20.3125 14.3182 19.9609 14.3182 19.5312C14.3182 19.1016 13.9602 18.75 13.5243 18.75Z" fill="#1746A2"/>
</svg>
