<svg width="14" height="15" viewBox="0 0 14 15" fill="none" xmlns="http://www.w3.org/2000/svg">
<path d="M6.68182 0C7 0.165278 7.63636 1.25611 7.63636 1.98333C7.63636 2.71056 7.21 2.975 6.68182 2.975C6.15364 2.975 5.72727 2.87583 5.72727 2.14861C5.72727 1.42139 6.36364 0.991667 6.68182 0ZM11.1364 5.61944C12.7273 5.61944 14 6.94167 14 8.59444C14 9.62578 13.4973 10.5315 12.7273 11.067V14.875H1.27273V11.067C0.502727 10.5315 0 9.62578 0 8.59444C0 6.94167 1.27273 5.61944 2.86364 5.61944H5.72727V3.63611H7.63636V5.61944H11.1364ZM7 10.2472C7.42194 10.2472 7.82659 10.0731 8.12494 9.76313C8.4233 9.45318 8.59091 9.03279 8.59091 8.59444H9.54545C9.54545 9.03279 9.71307 9.45318 10.0114 9.76313C10.3098 10.0731 10.7144 10.2472 11.1364 10.2472C11.5583 10.2472 11.963 10.0731 12.2613 9.76313C12.5597 9.45318 12.7273 9.03279 12.7273 8.59444C12.7273 8.1561 12.5597 7.73571 12.2613 7.42575C11.963 7.1158 11.5583 6.94167 11.1364 6.94167H2.86364C2.4417 6.94167 2.03705 7.1158 1.73869 7.42575C1.44034 7.73571 1.27273 8.1561 1.27273 8.59444C1.27273 9.03279 1.44034 9.45318 1.73869 9.76313C2.03705 10.0731 2.4417 10.2472 2.86364 10.2472C3.28557 10.2472 3.69023 10.0731 3.98858 9.76313C4.28693 9.45318 4.45455 9.03279 4.45455 8.59444H5.40909C5.40909 9.03279 5.5767 9.45318 5.87506 9.76313C6.17341 10.0731 6.57806 10.2472 7 10.2472V10.2472Z" fill="#1746A2"/>
</svg>
